<?xml version="1.0" standalone="no"?>
<!DOCTYPE svg PUBLIC "-//W3C//DTD SVG 20010904//EN"
 "http://www.w3.org/TR/2001/REC-SVG-20010904/DTD/svg10.dtd">
<svg version="1.0" xmlns="http://www.w3.org/2000/svg"
 width="512.000000pt" height="512.000000pt" viewBox="0 0 512.000000 512.000000"
 preserveAspectRatio="xMidYMid meet">

<g transform="translate(0.000000,512.000000) scale(0.100000,-0.100000)"
fill="#000000" stroke="none">
<path d="M2253 5105 c-198 -54 -341 -216 -387 -438 -18 -85 -20 -163 -6 -222
5 -22 8 -41 6 -42 -2 -2 -27 8 -57 21 -86 40 -165 56 -269 56 -109 0 -184 -17
-269 -59 -181 -92 -284 -289 -252 -483 12 -77 55 -180 97 -235 l24 -32 -391
-3 -391 -3 -24 -28 -24 -28 0 -472 c1 -355 4 -476 13 -488 23 -30 56 -39 146
-39 l91 0 0 -1280 0 -1281 25 -24 24 -25 1755 0 1755 0 28 24 28 24 3 1281 2
1281 96 0 c87 0 97 2 119 25 l25 24 0 479 0 479 -26 24 -26 24 -383 5 -384 5
35 55 c102 161 111 346 26 503 -33 62 -135 157 -204 191 -156 75 -364 76 -531
2 l-52 -23 -1 131 c0 118 -3 138 -28 206 -106 279 -351 430 -593 365z m226
-176 c144 -65 232 -213 234 -394 0 -78 -4 -102 -32 -180 -63 -172 -101 -235
-299 -503 -17 -23 -17 -23 -109 107 -159 224 -253 441 -253 584 0 84 23 171
64 240 34 59 116 132 169 150 63 23 173 21 226 -4z m-831 -624 c159 -36 284
-154 524 -490 l100 -140 -442 -3 -443 -2 -46 35 c-97 74 -152 172 -159 281 -2
40 1 86 7 106 57 173 247 261 459 213z m1703 -14 c32 -12 77 -40 102 -62 155
-136 129 -374 -56 -521 l-49 -38 -439 0 c-241 0 -439 4 -439 8 0 10 107 163
194 277 33 44 105 126 160 183 104 107 159 143 259 168 72 19 198 11 268 -15z
m909 -1151 l0 -360 -1895 0 -1895 0 0 360 0 360 1895 0 1895 0 0 -360z m-250
-1750 l0 -1220 -1645 0 -1645 0 0 1220 0 1220 1645 0 1645 0 0 -1220z"/>
<path d="M1885 2230 c-218 -43 -376 -183 -442 -389 -24 -76 -28 -244 -9 -340
56 -274 169 -411 756 -916 139 -119 157 -130 194 -121 41 10 513 422 657 573
184 193 271 391 270 618 -1 289 -157 496 -427 565 -167 43 -354 10 -479 -85
l-35 -28 -38 26 c-140 92 -298 126 -447 97z m58 -205 c-118 -105 -172 -293
-139 -484 32 -184 108 -314 286 -491 64 -63 171 -162 238 -220 l121 -105 -37
-32 c-20 -18 -41 -33 -45 -33 -12 0 -351 296 -479 419 -230 220 -304 369 -296
596 3 93 8 119 30 166 27 59 81 126 130 161 41 29 156 68 202 68 l38 0 -49
-45z"/>
<path d="M4614 4867 c-12 -7 -105 -98 -207 -204 -194 -199 -202 -211 -181
-268 9 -22 59 -43 89 -38 13 3 108 90 219 202 185 186 196 199 196 235 0 66
-61 105 -116 73z"/>
<path d="M455 4765 c-20 -19 -25 -34 -25 -73 l0 -49 -52 -5 c-38 -4 -57 -12
-70 -28 -18 -22 -23 -64 -12 -95 9 -23 57 -45 99 -45 l35 0 0 -48 c0 -57 19
-88 59 -97 59 -13 100 27 101 98 l0 47 40 0 c46 0 95 21 104 45 11 31 6 73
-12 95 -14 18 -32 24 -75 28 l-57 4 0 43 c0 57 -7 73 -41 90 -40 21 -66 19
-94 -10z"/>
<path d="M4683 4367 c-188 -187 -203 -205 -203 -238 0 -46 33 -79 81 -79 31 0
51 17 226 193 105 105 196 202 202 214 15 30 4 69 -26 93 -53 41 -63 35 -280
-183z"/>
<path d="M4093 4340 c-48 -20 -58 -92 -18 -130 72 -68 180 33 118 109 -21 24
-68 35 -100 21z"/>
<path d="M4353 4030 c-47 -19 -58 -92 -20 -128 51 -48 137 -13 137 55 0 58
-62 97 -117 73z"/>
<path d="M4557 2228 c-9 -7 -21 -25 -26 -40 -34 -90 100 -152 144 -67 21 40
19 66 -10 94 -27 28 -80 34 -108 13z"/>
<path d="M153 1478 c-29 -32 -34 -53 -22 -88 26 -73 137 -66 154 9 7 33 -15
85 -40 95 -33 12 -72 6 -92 -16z"/>
<path d="M4505 754 c-117 -43 -177 -187 -126 -300 35 -76 127 -134 212 -134
49 0 131 42 166 84 76 92 69 210 -17 296 -67 67 -148 86 -235 54z m123 -166
c17 -17 15 -73 -2 -87 -25 -21 -79 -9 -95 20 -13 24 -13 29 2 53 13 19 26 26
50 26 18 0 38 -5 45 -12z"/>
</g>
</svg>
