<?xml version="1.0" standalone="no"?>
<!DOCTYPE svg PUBLIC "-//W3C//DTD SVG 20010904//EN"
 "http://www.w3.org/TR/2001/REC-SVG-20010904/DTD/svg10.dtd">
<svg version="1.0" xmlns="http://www.w3.org/2000/svg"
 width="512.000000pt" height="512.000000pt" viewBox="0 0 512.000000 512.000000"
 preserveAspectRatio="xMidYMid meet">

<g transform="translate(0.000000,512.000000) scale(0.100000,-0.100000)"
fill="#000000" stroke="none">
<path d="M39 5057 c-9 -7 -21 -22 -27 -34 -17 -31 -17 -3455 0 -3486 25 -48
-2 -46 829 -47 l786 0 6 -42 c4 -26 1 -48 -6 -57 -7 -8 -114 -136 -240 -285
-125 -149 -230 -282 -234 -295 -3 -13 1 -38 10 -57 19 -39 8 -35 330 -112
l238 -57 105 -245 c65 -151 115 -254 130 -267 31 -28 73 -29 105 -4 13 11 125
141 249 290 124 148 232 270 240 270 8 0 116 -122 240 -270 124 -149 236 -279
249 -290 32 -25 74 -24 105 4 15 13 65 116 130 267 l105 245 263 63 c145 35
273 69 285 77 30 20 40 78 20 109 -12 18 -379 459 -463 556 -8 10 -11 30 -7
58 l6 42 786 0 c831 1 804 -1 829 47 17 31 17 3455 0 3486 -6 12 -18 27 -27
34 -23 18 -5019 18 -5042 0z m4911 -1777 l0 -1620 -728 0 -727 0 -12 73 c-52
328 -298 618 -613 727 -264 90 -551 61 -791 -81 -153 -91 -279 -230 -359 -394
-47 -97 -90 -239 -90 -297 l0 -28 -730 0 -730 0 0 1620 0 1620 2390 0 2390 0
0 -1620z m-2232 -956 c377 -77 648 -447 604 -824 -17 -145 -65 -271 -142 -375
-95 -127 -235 -230 -385 -281 -74 -26 -92 -28 -235 -28 -143 0 -161 2 -235 28
-186 64 -361 212 -445 376 -165 324 -89 703 189 943 71 61 235 142 326 161 94
19 229 20 323 0z m-992 -1176 c114 -225 328 -403 567 -473 l57 -16 -152 -180
c-83 -99 -154 -176 -158 -172 -4 4 -42 89 -84 188 -43 99 -84 190 -92 203 -22
33 -58 46 -277 98 l-197 46 43 52 c166 198 259 306 262 306 3 0 17 -24 31 -52z
m1872 -148 c72 -85 129 -156 128 -157 -1 -1 -96 -25 -211 -52 -123 -29 -219
-57 -234 -69 -18 -13 -52 -78 -111 -215 -47 -108 -88 -199 -91 -202 -4 -3 -74
75 -157 173 l-151 179 84 28 c233 76 428 243 539 464 l28 54 23 -24 c13 -13
82 -94 153 -179z"/>
<path d="M373 4706 l-28 -24 0 -189 0 -188 83 -3 82 -3 0 131 0 130 130 0 130
0 0 85 0 85 -184 0 c-181 0 -185 -1 -213 -24z"/>
<path d="M4350 4645 l0 -85 130 0 130 0 0 -130 0 -131 83 3 82 3 0 188 0 189
-28 24 c-28 23 -32 24 -213 24 l-184 0 0 -85z"/>
<path d="M1540 4045 l0 -85 1020 0 1020 0 0 85 0 85 -1020 0 -1020 0 0 -85z"/>
<path d="M1020 3535 l0 -85 1540 0 1540 0 0 85 0 85 -1540 0 -1540 0 0 -85z"/>
<path d="M342 2069 l3 -191 28 -24 c28 -23 32 -24 213 -24 l184 0 0 85 0 85
-130 0 -130 0 0 130 0 130 -86 0 -85 0 3 -191z"/>
<path d="M4610 2130 l0 -130 -130 0 -130 0 0 -85 0 -85 184 0 c181 0 185 1
213 24 l28 24 3 191 3 191 -85 0 -86 0 0 -130z"/>
<path d="M2412 2150 c-110 -29 -187 -74 -273 -161 -121 -120 -174 -251 -173
-424 2 -263 182 -496 439 -566 66 -18 97 -21 185 -16 122 6 199 29 287 86 172
111 276 297 277 496 1 108 -14 175 -61 274 -44 93 -158 211 -250 259 -132 69
-291 88 -431 52z m229 -160 c214 -40 370 -257 338 -470 -11 -75 -22 -110 -53
-163 -38 -65 -116 -134 -194 -170 -62 -30 -75 -32 -172 -32 -97 0 -110 2 -172
32 -107 51 -200 150 -230 246 -97 318 162 617 483 557z"/>
</g>
</svg>
