<?xml version="1.0" standalone="no"?>
<!DOCTYPE svg PUBLIC "-//W3C//DTD SVG 20010904//EN"
 "http://www.w3.org/TR/2001/REC-SVG-20010904/DTD/svg10.dtd">
<svg version="1.0" xmlns="http://www.w3.org/2000/svg"
 width="512.000000pt" height="512.000000pt" viewBox="0 0 512.000000 512.000000"
 preserveAspectRatio="xMidYMid meet">

<g transform="translate(0.000000,512.000000) scale(0.100000,-0.100000)"
fill="#00456e" stroke="none">
<path d="M1139 4519 c-195 -28 -381 -97 -529 -195 -281 -185 -452 -452 -531
-824 -30 -141 -33 -404 -6 -528 57 -266 182 -517 385 -772 103 -130 386 -410
567 -561 83 -68 312 -250 510 -404 477 -370 625 -495 840 -708 l180 -178 95
100 c200 210 401 381 915 781 619 480 834 671 1054 934 298 355 455 750 437
1096 -19 379 -143 680 -375 911 -105 104 -181 160 -302 221 -304 152 -695 181
-1060 78 -253 -71 -502 -203 -695 -366 -35 -30 -66 -54 -69 -54 -3 0 -43 30
-88 67 -206 168 -484 307 -742 372 -146 36 -440 52 -586 30z"/>
</g>
</svg>
