<?xml version="1.0" standalone="no"?>
<!DOCTYPE svg PUBLIC "-//W3C//DTD SVG 20010904//EN"
 "http://www.w3.org/TR/2001/REC-SVG-20010904/DTD/svg10.dtd">
<svg version="1.0" xmlns="http://www.w3.org/2000/svg"
 width="512.000000pt" height="512.000000pt" viewBox="0 0 512.000000 512.000000"
 preserveAspectRatio="xMidYMid meet">

<g transform="translate(0.000000,512.000000) scale(0.100000,-0.100000)"
fill="#000000" stroke="none">
<path d="M441 5104 c-52 -37 -51 -14 -51 -994 0 -988 -2 -959 54 -995 36 -24
94 -14 123 20 l23 26 0 880 0 879 1380 0 1380 0 0 -769 0 -768 -57 -38 c-32
-21 -91 -70 -130 -108 l-73 -70 0 209 c0 228 -7 272 -47 304 -26 20 -36 21
-266 18 l-239 -3 -24 -28 -24 -28 0 -279 0 -279 24 -28 24 -28 225 -3 225 -3
-28 -62 c-15 -34 -33 -79 -39 -99 l-12 -37 -185 -3 -186 -3 -24 -28 -24 -28 0
-278 c0 -265 1 -280 20 -304 12 -15 36 -29 54 -33 l34 -6 -23 -56 c-24 -59
-55 -192 -55 -237 l0 -25 -690 0 c-513 0 -696 -3 -715 -12 -55 -25 -55 -22
-55 -598 l0 -530 -235 0 -235 0 0 879 0 880 -23 26 c-51 60 -145 36 -167 -43
-6 -24 -10 -336 -10 -889 l0 -853 -155 0 c-171 0 -202 -8 -223 -55 -17 -36
-17 -534 0 -570 27 -59 -146 -55 2478 -55 2624 0 2451 -4 2478 55 42 92 -24
282 -137 396 -125 125 -298 175 -466 135 l-50 -12 -51 46 c-66 59 -174 116
-266 139 l-73 19 -3 217 -2 217 32 -22 c18 -12 69 -39 113 -60 469 -223 1020
106 1052 630 15 251 -109 510 -312 650 l-44 31 5 77 c18 238 -85 506 -265 694
-129 136 -283 224 -467 270 -112 27 -304 29 -407 4 -38 -9 -70 -16 -73 -16 -2
0 -4 357 -4 794 l0 795 -24 28 -24 28 -1519 3 c-1394 2 -1520 1 -1542 -14z
m2449 -1744 l0 -140 -100 0 -100 0 0 140 0 140 100 0 100 0 0 -140z m1107 -75
c364 -84 616 -455 563 -828 -15 -107 -5 -131 76 -177 348 -196 379 -687 58
-916 -91 -65 -177 -95 -289 -101 -163 -10 -300 43 -417 160 l-68 68 0 137 0
136 189 191 c104 104 195 203 201 220 30 78 -58 162 -131 125 -13 -7 -77 -64
-141 -128 l-118 -117 0 238 c0 193 -3 244 -15 267 -18 35 -43 50 -85 50 -82 0
-100 -39 -100 -212 l0 -133 -97 97 c-57 56 -110 100 -126 104 -61 14 -117 -37
-117 -107 0 -29 20 -53 170 -204 l170 -171 0 -247 0 -246 -68 -68 c-117 -117
-254 -170 -417 -160 -244 13 -444 181 -500 419 -53 227 54 472 260 592 91 54
100 74 85 184 -47 331 142 662 453 791 63 25 96 34 217 55 41 7 180 -4 247
-19z m-1124 -752 c6 -86 6 -88 -20 -108 -14 -11 -44 -35 -65 -52 -25 -21 -51
-33 -69 -33 l-29 0 0 140 0 140 89 0 88 0 6 -87z m-1013 -1383 l0 -470 -300 0
-300 0 0 470 0 470 300 0 300 0 0 -470z m685 458 c29 -85 51 -134 80 -182 l35
-58 0 -344 0 -344 -300 0 -300 0 0 470 0 470 240 0 c184 0 242 -3 245 -12z
m1173 -719 l-3 -111 -70 -19 c-38 -10 -76 -18 -83 -18 -10 -1 -12 40 -10 186
l3 187 80 45 80 46 3 -102 c1 -56 1 -152 0 -214z m-778 246 c93 -47 213 -75
323 -75 l87 0 0 -190 0 -190 -245 0 -245 0 0 245 c0 135 2 245 5 245 3 0 37
-16 75 -35z m1030 -575 c85 -28 148 -70 212 -139 30 -33 67 -63 81 -66 16 -4
53 3 100 19 42 14 93 26 114 26 57 0 134 -25 182 -60 37 -27 101 -110 101
-132 0 -4 -317 -8 -705 -8 -809 0 -728 -13 -670 109 58 120 169 215 300 257
65 21 216 17 285 -6z m-751 -133 c-29 -52 -48 -104 -69 -184 l-11 -43 -1469 0
-1470 0 0 140 0 140 1524 0 1524 0 -29 -53z"/>
<path d="M944 4570 c-52 -21 -54 -34 -54 -332 l0 -277 24 -28 24 -28 239 -3
c230 -3 240 -2 266 18 14 11 31 38 37 58 13 48 13 476 0 524 -6 20 -22 46 -37
58 -24 19 -39 20 -252 19 -124 0 -236 -4 -247 -9z m346 -330 l0 -140 -100 0
-100 0 0 140 0 140 100 0 100 0 0 -140z"/>
<path d="M1744 4570 c-52 -21 -54 -34 -54 -332 l0 -277 24 -28 24 -28 239 -3
c230 -3 240 -2 266 18 14 11 31 38 37 58 13 48 13 476 0 524 -6 20 -22 46 -37
58 -24 19 -39 20 -252 19 -124 0 -236 -4 -247 -9z m346 -330 l0 -140 -100 0
-100 0 0 140 0 140 100 0 100 0 0 -140z"/>
<path d="M2544 4570 c-52 -21 -54 -34 -54 -332 l0 -277 24 -28 24 -28 239 -3
c230 -3 240 -2 266 18 14 11 31 38 37 58 13 48 13 476 0 524 -6 20 -22 46 -37
58 -24 19 -39 20 -252 19 -124 0 -236 -4 -247 -9z m346 -330 l0 -140 -100 0
-100 0 0 140 0 140 100 0 100 0 0 -140z"/>
<path d="M944 3690 c-52 -21 -54 -34 -54 -332 l0 -277 24 -28 24 -28 239 -3
c230 -3 240 -2 266 18 14 11 31 38 37 58 13 48 13 476 0 524 -6 20 -22 46 -37
58 -24 19 -39 20 -252 19 -124 0 -236 -4 -247 -9z m346 -330 l0 -140 -100 0
-100 0 0 140 0 140 100 0 100 0 0 -140z"/>
<path d="M1744 3690 c-52 -21 -54 -34 -54 -332 l0 -277 24 -28 24 -28 239 -3
c230 -3 240 -2 266 18 14 11 31 38 37 58 13 48 13 476 0 524 -6 20 -22 46 -37
58 -24 19 -39 20 -252 19 -124 0 -236 -4 -247 -9z m346 -330 l0 -140 -100 0
-100 0 0 140 0 140 100 0 100 0 0 -140z"/>
<path d="M441 2884 c-13 -9 -30 -32 -38 -51 -12 -31 -12 -38 4 -71 48 -98 183
-69 183 39 0 52 -33 89 -85 95 -28 4 -47 0 -64 -12z"/>
<path d="M944 2810 c-52 -21 -54 -34 -54 -332 l0 -277 24 -28 24 -28 239 -3
c230 -3 240 -2 266 18 14 11 31 38 37 58 13 48 13 476 0 524 -6 20 -22 46 -37
58 -24 19 -39 20 -252 19 -124 0 -236 -4 -247 -9z m346 -330 l0 -140 -100 0
-100 0 0 140 0 140 100 0 100 0 0 -140z"/>
<path d="M1744 2810 c-52 -21 -54 -34 -54 -332 l0 -277 24 -28 24 -28 239 -3
c230 -3 240 -2 266 18 14 11 31 38 37 58 13 48 13 476 0 524 -6 20 -22 46 -37
58 -24 19 -39 20 -252 19 -124 0 -236 -4 -247 -9z m346 -330 l0 -140 -100 0
-100 0 0 140 0 140 100 0 100 0 0 -140z"/>
</g>
</svg>
