<?xml version="1.0" standalone="no"?>
<!DOCTYPE svg PUBLIC "-//W3C//DTD SVG 20010904//EN"
 "http://www.w3.org/TR/2001/REC-SVG-20010904/DTD/svg10.dtd">
<svg version="1.0" xmlns="http://www.w3.org/2000/svg"
 width="512.000000pt" height="512.000000pt" viewBox="0 0 512.000000 512.000000"
 preserveAspectRatio="xMidYMid meet">

<g transform="translate(0.000000,512.000000) scale(0.100000,-0.100000)"
fill="#000000" stroke="none">
<path d="M1153 5102 c-93 -33 -168 -111 -193 -202 -5 -19 -10 -147 -10 -285
l0 -250 -96 95 c-133 132 -136 140 -143 328 -6 153 -6 154 -34 178 -40 34 -88
32 -129 -5 -32 -29 -33 -30 -36 -138 -2 -60 1 -143 7 -184 21 -132 42 -164
244 -366 l181 -183 18 -106 c29 -173 106 -333 221 -460 26 -29 251 -210 500
-402 302 -233 462 -364 479 -390 47 -70 49 -93 46 -483 l-3 -366 -195 139
c-356 254 -362 259 -395 319 l-30 54 -5 215 c-5 191 -8 220 -27 261 -51 112
-140 171 -266 177 -71 4 -84 1 -142 -27 -72 -36 -107 -72 -144 -151 -26 -54
-26 -59 -26 -275 0 -139 5 -240 13 -274 7 -30 11 -55 10 -57 -7 -6 -256 185
-287 221 -52 59 -63 98 -70 229 -7 118 -7 119 -39 147 -35 31 -66 36 -107 17
-43 -19 -55 -56 -55 -165 0 -161 45 -284 139 -382 25 -26 377 -285 781 -575
404 -290 754 -548 777 -572 36 -38 73 -114 73 -149 0 -8 -29 -15 -82 -19 -625
-53 -1264 -337 -1701 -755 -115 -110 -134 -144 -113 -195 8 -18 24 -41 37 -50
22 -15 201 -16 2162 -16 1887 0 2141 2 2167 15 37 19 50 43 50 92 0 35 -8 45
-103 138 -444 431 -1087 719 -1724 771 l-83 7 0 301 c0 166 5 317 10 336 22
80 62 122 220 236 161 115 189 147 176 199 -11 44 -50 75 -94 75 -43 0 -49 -4
-235 -138 -127 -91 -185 -150 -223 -224 -49 -97 -54 -140 -54 -470 l0 -308
-105 0 -105 0 0 808 c0 714 -2 815 -16 863 -22 73 -55 135 -99 186 -20 24
-233 195 -473 380 -240 186 -456 358 -480 382 -75 76 -121 154 -163 271 -23
63 -23 76 -27 489 -2 314 0 431 9 453 13 31 54 58 89 58 29 0 77 -27 90 -49 6
-13 10 -155 10 -388 0 -208 5 -396 11 -433 14 -86 67 -194 124 -252 25 -25
239 -195 475 -378 237 -182 452 -356 480 -387 62 -68 115 -161 148 -261 23
-70 26 -97 31 -310 l6 -234 28 -24 c34 -29 80 -31 123 -5 88 54 907 651 952
695 29 28 66 74 82 101 58 102 60 121 61 564 0 455 1 465 61 494 49 24 89 15
123 -25 l26 -31 -3 -446 -3 -446 -28 -80 c-50 -142 -110 -227 -235 -335 -68
-58 -72 -64 -72 -104 0 -51 20 -81 64 -96 46 -15 83 1 167 73 115 97 218 253
264 397 16 51 36 74 255 295 130 132 246 256 258 275 44 75 63 157 69 299 10
229 -11 286 -102 286 -38 0 -51 -5 -70 -27 -21 -25 -23 -37 -27 -200 -6 -229
-6 -229 -191 -416 l-142 -143 -5 358 c-5 344 -6 360 -27 403 -92 185 -329 233
-480 97 -48 -44 -81 -108 -93 -184 -6 -32 -10 -234 -10 -449 l0 -390 -25 -50
c-14 -27 -39 -64 -57 -81 -18 -16 -197 -148 -398 -293 l-365 -262 -7 115 c-10
166 -50 306 -123 431 l-27 46 113 118 c62 64 133 144 157 177 79 107 141 250
174 400 9 44 13 166 13 455 0 382 -1 396 -21 441 -30 64 -88 125 -148 157 -43
22 -64 26 -131 27 -104 0 -177 -33 -235 -107 -62 -77 -70 -120 -70 -357 l-1
-206 -132 135 c-102 104 -135 144 -145 176 -7 23 -12 98 -12 171 0 116 -2 133
-20 156 -42 53 -132 44 -165 -17 -15 -28 -17 -54 -13 -187 6 -227 9 -233 278
-503 l209 -211 -10 -43 c-17 -78 -50 -125 -174 -251 l-122 -124 -269 208
c-314 242 -335 261 -366 329 -23 50 -23 59 -28 471 l-5 420 -27 51 c-69 130
-229 194 -365 146z m1726 -468 c47 -34 51 -61 51 -391 0 -338 -9 -440 -46
-553 -41 -122 -95 -203 -229 -339 l-121 -124 -81 64 -81 64 126 130 c97 99
135 146 159 196 58 118 63 156 63 548 l0 353 34 34 c39 39 85 45 125 18z
m-1548 -1794 c42 -23 49 -59 49 -247 0 -241 24 -326 121 -437 21 -23 189 -150
373 -282 l335 -239 1 -123 0 -124 -47 35 c-27 19 -171 121 -321 226 -432 304
-437 308 -489 365 -142 160 -188 321 -181 626 l3 149 29 30 c23 24 38 31 69
31 21 0 47 -5 58 -10z m1474 -2020 c275 -16 509 -62 757 -150 139 -50 376
-164 506 -244 98 -61 285 -196 296 -215 5 -8 -512 -11 -1849 -11 l-1857 0 48
41 c138 114 386 265 575 350 447 199 885 265 1524 229z"/>
<path d="M3659 4761 c-49 -49 -35 -126 28 -156 43 -21 86 -12 113 22 30 38 34
67 15 106 -30 63 -107 77 -156 28z"/>
<path d="M488 3634 c-48 -26 -62 -79 -33 -133 28 -55 110 -64 153 -18 80 85
-17 207 -120 151z"/>
<path d="M3423 2406 c-23 -20 -28 -32 -28 -71 0 -39 5 -51 28 -71 42 -36 99
-33 139 6 27 28 30 36 25 73 -11 82 -102 116 -164 63z"/>
<path d="M4177 2010 c-151 -38 -257 -170 -257 -320 0 -124 75 -241 189 -297
73 -36 190 -39 263 -6 62 28 134 96 166 158 24 44 27 62 27 145 0 84 -3 101
-27 146 -68 129 -229 206 -361 174z m118 -204 c45 -19 75 -69 75 -124 0 -84
-93 -142 -173 -108 -98 40 -101 189 -4 231 41 18 60 18 102 1z"/>
</g>
</svg>
