<?xml version="1.0" standalone="no"?>
<!DOCTYPE svg PUBLIC "-//W3C//DTD SVG 20010904//EN"
 "http://www.w3.org/TR/2001/REC-SVG-20010904/DTD/svg10.dtd">
<svg version="1.0" xmlns="http://www.w3.org/2000/svg"
 width="512.000000pt" height="512.000000pt" viewBox="0 80 512.000000 512.000000"
 preserveAspectRatio="xMidYMid meet">

<g transform="translate(0.000000,512.000000) scale(0.100000,-0.100000)"
fill="#000000" stroke="none">
<path d="M25 3395 l-25 -24 0 -1191 0 -1191 25 -24 24 -25 336 0 336 0 24 25
c21 20 25 34 25 81 0 49 2 55 18 49 9 -3 292 -162 627 -353 336 -190 635 -357
666 -369 128 -52 148 -53 893 -53 l693 0 21 23 c29 31 28 72 -3 102 l-24 25
-679 0 c-444 0 -699 4 -738 11 -89 16 -167 57 -844 442 l-625 356 -3 867 -2
866 232 -5 c199 -4 245 -8 313 -27 166 -45 313 -130 445 -257 85 -80 121 -92
160 -53 37 37 27 75 -42 147 -119 123 -269 220 -432 279 -140 49 -247 64 -478
64 l-198 0 0 108 c0 164 30 152 -384 152 l-337 0 -24 -25z m595 -1215 l0
-1090 -80 0 -80 0 0 174 c0 96 -3 182 -6 191 -11 28 -58 46 -92 34 -46 -16
-52 -43 -52 -229 l0 -170 -80 0 -80 0 0 1090 0 1090 235 0 235 0 0 -1090z"/>
<path d="M3574 3110 c-221 -47 -362 -283 -298 -501 23 -77 62 -133 159 -228
79 -78 87 -83 118 -77 17 3 40 16 50 27 33 40 22 65 -67 157 -108 113 -121
137 -121 232 0 64 4 82 28 123 67 114 210 156 327 97 42 -21 71 -52 114 -117
25 -39 37 -49 65 -51 38 -4 64 15 91 69 27 52 82 96 142 114 64 19 82 19 144
0 99 -29 162 -109 171 -217 10 -108 0 -123 -280 -405 -138 -139 -255 -253
-261 -253 -5 0 -42 32 -82 70 -80 78 -108 87 -149 45 -46 -46 -36 -68 88 -192
93 -93 118 -113 142 -113 26 0 72 43 332 303 357 357 358 358 357 522 0 137
-23 196 -113 286 -72 72 -132 101 -232 114 -104 13 -242 -31 -305 -96 -15 -16
-32 -29 -37 -29 -5 0 -29 18 -54 40 -25 21 -69 48 -99 60 -63 23 -171 33 -230
20z"/>
<path d="M2041 2534 c-26 -32 -26 -51 -3 -86 9 -15 229 -242 487 -505 298
-302 478 -493 490 -518 27 -55 25 -147 -3 -201 -59 -116 -203 -165 -313 -108
-17 8 -226 179 -465 380 -318 266 -442 364 -460 364 -34 0 -74 -42 -74 -78 0
-37 -13 -25 484 -441 325 -272 431 -356 475 -373 l56 -23 1046 -5 1046 -5 49
-30 c30 -19 60 -49 79 -79 26 -43 30 -59 30 -121 0 -62 -4 -78 -30 -121 -19
-30 -49 -60 -79 -79 l-49 -30 -436 -5 c-240 -3 -443 -9 -453 -13 -43 -22 -43
-103 1 -126 13 -7 164 -11 444 -11 396 0 429 1 488 20 266 83 353 419 164 629
-37 40 -161 111 -196 111 -40 0 -48 9 -37 48 6 20 8 71 6 113 -8 139 -92 265
-218 327 l-55 27 -721 3 -720 3 -170 172 c-93 94 -305 310 -471 480 -282 286
-304 307 -337 307 -25 0 -40 -7 -55 -26z m2464 -1103 c49 -23 99 -74 119 -123
21 -48 20 -127 0 -178 l-16 -40 -748 0 -749 0 30 58 c47 91 57 181 32 280 l-5
22 648 0 c611 0 651 -2 689 -19z"/>
</g>
</svg>
