<?xml version="1.0" standalone="no"?>
<!DOCTYPE svg PUBLIC "-//W3C//DTD SVG 20010904//EN"
 "http://www.w3.org/TR/2001/REC-SVG-20010904/DTD/svg10.dtd">
<svg version="1.0" xmlns="http://www.w3.org/2000/svg"
 width="512.000000pt" height="512.000000pt" viewBox="0 0 512.000000 512.000000"
 preserveAspectRatio="xMidYMid meet">

<g transform="translate(0.000000,512.000000) scale(0.100000,-0.100000)"
fill="#000000" stroke="none">
<path d="M1623 4475 c-284 -51 -524 -232 -648 -488 -68 -142 -89 -235 -88
-397 1 -161 21 -248 88 -387 111 -228 307 -392 562 -470 79 -24 104 -26 238
-26 174 0 255 17 389 82 369 179 570 586 487 988 -48 230 -183 429 -382 562
-190 128 -423 177 -646 136z m345 -226 c215 -66 381 -225 456 -438 27 -78 30
-98 31 -211 0 -111 -3 -135 -29 -213 -73 -222 -250 -391 -476 -453 -103 -28
-273 -24 -375 9 -111 37 -198 90 -280 172 -80 81 -126 153 -161 254 -138 397
105 816 521 897 89 17 224 10 313 -17z"/>
<path d="M3695 4476 c-234 -53 -426 -242 -480 -468 -22 -92 -19 -228 6 -318
58 -213 240 -391 454 -445 76 -19 222 -19 304 0 206 49 388 221 454 430 17 55
22 94 22 180 0 178 -49 305 -167 431 -120 128 -261 192 -438 200 -59 2 -118
-1 -155 -10z m206 -206 c173 -32 309 -172 340 -349 31 -176 -70 -365 -238
-443 -128 -60 -294 -47 -407 32 -128 89 -191 216 -184 370 3 70 10 98 36 153
54 116 158 201 287 233 63 16 99 17 166 4z"/>
<path d="M3690 3010 c-420 -52 -791 -306 -979 -670 -24 -47 -45 -86 -46 -88
-1 -1 -40 17 -86 42 -482 253 -1074 261 -1565 20 -199 -97 -413 -263 -550
-425 -283 -335 -424 -722 -424 -1166 l0 -133 1735 0 1735 0 0 151 c0 247 -46
482 -135 689 -20 47 -39 91 -42 98 -4 9 175 12 876 12 l881 0 0 153 c0 246
-34 413 -119 593 -175 368 -499 624 -888 703 -117 24 -290 33 -393 21z m332
-224 c454 -87 790 -448 849 -913 6 -51 9 -99 6 -108 -6 -13 -97 -15 -840 -15
l-835 0 -71 89 c-39 49 -119 134 -177 189 l-106 100 11 33 c19 54 79 155 143
240 142 188 366 328 608 380 105 22 309 25 412 5z m-2084 -517 c334 -36 644
-179 885 -409 275 -262 438 -597 472 -972 l7 -78 -1526 0 -1527 0 5 33 c3 17
8 63 12 101 18 202 114 462 237 646 160 239 357 411 612 535 258 125 541 175
823 144z"/>
</g>
</svg>
