<?xml version="1.0" standalone="no"?>
<!DOCTYPE svg PUBLIC "-//W3C//DTD SVG 20010904//EN"
 "http://www.w3.org/TR/2001/REC-SVG-20010904/DTD/svg10.dtd">
<svg version="1.0" xmlns="http://www.w3.org/2000/svg"
 width="512.000000pt" height="512.000000pt" viewBox="0 0 512.000000 512.000000"
 preserveAspectRatio="xMidYMid meet">

<g transform="translate(0.000000,512.000000) scale(0.100000,-0.100000)"
fill="#000000" stroke="none">
<path d="M2085 3252 c-38 -2 -76 -8 -83 -15 -8 -6 -35 -53 -59 -104 -39 -82
-50 -96 -97 -128 -29 -19 -58 -35 -64 -35 -6 0 -24 -12 -41 -26 -30 -25 -32
-25 -158 -19 -124 5 -128 6 -158 35 -34 33 -61 38 -91 16 -17 -13 -19 -29 -22
-136 -4 -131 2 -150 45 -150 31 0 80 -53 95 -103 7 -22 24 -52 40 -69 25 -26
33 -29 64 -23 24 4 52 0 85 -11 48 -18 49 -18 90 5 48 27 80 24 138 -15 37
-24 47 -26 130 -23 81 4 92 6 118 31 15 15 39 55 52 90 13 35 36 90 51 123 15
33 31 79 35 102 8 51 19 61 79 72 89 16 85 38 -14 88 -51 26 -55 31 -65 78 -6
28 -18 61 -25 75 -8 14 -17 49 -20 79 -6 64 -13 68 -125 63z"/>
<path d="M104 3165 c-18 -27 -21 -20 41 -106 25 -35 73 -74 103 -83 12 -4 41
-35 63 -68 23 -33 53 -67 68 -76 24 -13 91 -131 91 -159 0 -5 26 -34 59 -64
37 -36 63 -70 71 -95 16 -50 51 -87 120 -126 30 -17 78 -50 105 -72 28 -23 77
-54 110 -69 54 -24 66 -26 124 -20 l65 8 14 63 13 62 -35 64 c-20 35 -36 73
-36 83 0 24 -19 43 -43 43 -61 0 -199 142 -213 220 -8 45 -19 57 -53 65 -16 3
-52 26 -81 51 -28 24 -57 44 -65 44 -7 0 -19 8 -26 17 -8 9 -43 30 -79 46 -39
18 -90 53 -127 88 -43 40 -76 62 -105 69 -24 6 -64 17 -89 25 -64 20 -76 19
-95 -10z"/>
<path d="M2568 2900 c-69 -45 -76 -52 -82 -90 -4 -23 -23 -76 -43 -118 l-36
-76 17 -45 c9 -25 16 -67 16 -92 0 -26 7 -63 15 -82 8 -20 15 -52 15 -71 0
-50 43 -98 84 -94 22 2 30 7 27 18 -3 8 -7 57 -11 107 -3 52 -11 98 -18 105
-20 20 -15 66 9 78 36 20 80 2 96 -39 8 -20 33 -50 58 -69 34 -26 45 -42 50
-72 7 -42 23 -61 52 -61 42 0 104 15 115 28 12 15 -22 53 -146 162 -37 32 -38
35 -21 48 11 7 30 13 43 13 27 0 187 52 232 75 38 20 43 30 24 49 -22 23 -52
20 -94 -9 -32 -22 -47 -25 -140 -27 -101 -1 -107 0 -159 30 -53 30 -121 102
-121 127 0 35 27 39 265 36 l234 -2 41 27 c24 16 40 34 38 43 -4 21 -55 26
-76 8 -34 -30 -316 -8 -388 31 -17 9 -33 3 -96 -38z"/>
<path d="M3800 2744 c-14 -2 -59 -9 -100 -15 -41 -6 -86 -12 -99 -14 -27 -3
-51 -29 -51 -55 0 -21 28 -60 43 -60 6 0 28 -18 48 -40 35 -38 71 -51 84 -30
8 14 62 13 71 -1 11 -18 -18 -30 -58 -23 -33 5 -38 3 -38 -14 0 -10 9 -27 20
-37 11 -10 34 -40 51 -66 35 -55 50 -60 73 -24 19 29 33 31 57 9 9 -8 44 -19
78 -24 33 -5 66 -12 73 -16 7 -5 73 -14 145 -20 l133 -12 60 -48 c33 -27 81
-60 106 -74 40 -21 49 -32 60 -69 8 -27 30 -61 56 -88 l43 -45 67 6 c95 8 158
-8 219 -56 28 -22 65 -42 84 -45 l33 -5 1 227 1 227 -60 58 c-51 49 -68 59
-127 74 -105 28 -134 36 -193 60 -73 28 -296 31 -326 4 -11 -9 -61 -32 -112
-52 -84 -33 -96 -35 -135 -25 -54 13 -128 76 -130 109 -1 14 2 41 6 61 7 34 4
41 -35 83 -45 48 -62 52 -148 40z"/>
<path d="M1175 2199 c-54 -47 -70 -66 -70 -87 0 -25 3 -27 55 -33 30 -3 69
-12 85 -19 20 -9 81 -14 180 -15 148 -2 182 -7 241 -38 19 -10 45 -14 70 -11
31 4 156 -8 289 -28 17 -3 20 2 19 32 -1 19 -6 51 -11 70 -8 34 -11 35 -68 42
-33 4 -87 9 -121 11 -66 4 -84 11 -84 32 0 10 19 13 78 12 88 -1 131 15 111
39 -12 14 -64 15 -189 4 -8 -1 -42 8 -75 19 l-60 22 -50 -25 c-46 -23 -56 -25
-122 -18 -54 6 -79 14 -96 30 -17 16 -35 22 -68 22 -39 -1 -52 -7 -114 -61z"/>
</g>
</svg>
