<?xml version="1.0" standalone="no"?>
<!DOCTYPE svg PUBLIC "-//W3C//DTD SVG 20010904//EN"
 "http://www.w3.org/TR/2001/REC-SVG-20010904/DTD/svg10.dtd">
<svg version="1.0" xmlns="http://www.w3.org/2000/svg"
 width="512.000000pt" height="512.000000pt" viewBox="0 0 512.000000 512.000000"
 preserveAspectRatio="xMidYMid meet">

<g transform="translate(0.000000,512.000000) scale(0.100000,-0.100000)"
fill="#000000" stroke="none">
<path d="M2000 4676 c-147 -42 -266 -137 -335 -267 -84 -160 -85 -334 -3 -492
18 -34 34 -65 36 -69 2 -4 -241 -9 -540 -10 -543 -3 -543 -3 -593 -26 -58 -27
-117 -80 -150 -137 -39 -67 -47 -139 -43 -405 3 -239 4 -246 29 -300 35 -74
72 -116 135 -152 l54 -30 2 -1066 3 -1067 24 -45 c32 -61 86 -116 146 -148
l50 -27 1745 0 1745 0 50 27 c60 32 114 87 146 148 l24 45 3 1067 2 1066 54
30 c63 36 100 78 135 152 l26 55 0 275 c0 241 -2 282 -18 328 -25 70 -101 152
-169 183 l-53 24 -543 3 c-299 1 -542 6 -540 10 2 4 18 35 36 69 126 243 49
534 -183 689 -79 53 -157 77 -266 82 -153 7 -277 -40 -389 -146 l-61 -57 -59
57 c-61 60 -140 105 -229 132 -65 19 -206 20 -271 2z m274 -230 c60 -29 113
-82 148 -148 21 -40 23 -57 26 -251 l3 -209 -198 4 c-183 3 -202 5 -250 27
-130 58 -211 212 -183 348 15 73 31 104 83 160 95 103 245 131 371 69z m844 4
c108 -47 186 -168 186 -290 0 -121 -77 -242 -186 -291 -49 -22 -68 -24 -250
-27 l-198 -4 0 189 c0 207 6 239 53 309 89 132 248 178 395 114z m-1090 -1142
l2 -318 -691 0 -691 0 -29 29 -29 29 0 254 c0 218 2 257 16 277 36 51 29 50
749 48 l670 -2 3 -317z m852 2 l0 -320 -320 0 -320 0 0 320 0 320 320 0 320 0
0 -320z m1584 306 c65 -27 66 -33 66 -314 l0 -254 -29 -29 -29 -29 -691 0
-691 0 0 313 c0 173 3 317 7 320 3 4 305 7 670 7 545 0 670 -2 697 -14z
m-2434 -1911 l0 -1065 -585 2 -585 3 -27 28 -28 27 -3 1035 -2 1035 615 0 615
0 0 -1065z m850 0 l0 -1065 -320 0 -320 0 0 1065 0 1065 320 0 320 0 0 -1065z
m1438 30 l-3 -1035 -28 -27 -27 -28 -585 -3 -585 -2 0 1065 0 1065 615 0 615
0 -2 -1035z"/>
</g>
</svg>
