<?xml version="1.0" standalone="no"?>
<!DOCTYPE svg PUBLIC "-//W3C//DTD SVG 20010904//EN"
 "http://www.w3.org/TR/2001/REC-SVG-20010904/DTD/svg10.dtd">
<svg version="1.0" xmlns="http://www.w3.org/2000/svg"
 width="512.000000pt" height="512.000000pt" viewBox="0 0 512.000000 512.000000"
 preserveAspectRatio="xMidYMid meet">

<g transform="translate(0.000000,512.000000) scale(0.100000,-0.100000)"
fill="#000000" stroke="none">
<path d="M2405 5031 c-92 -24 -173 -90 -215 -176 -22 -46 -24 -66 -29 -233 -8
-240 12 -222 -243 -222 -229 0 -255 -6 -323 -75 -102 -101 -102 -229 0 -330
68 -69 94 -75 324 -75 190 0 192 0 216 -25 33 -32 33 -78 0 -110 -24 -25 -26
-25 -216 -25 -121 0 -207 -4 -233 -12 -55 -16 -138 -99 -154 -154 -28 -94 -8
-169 63 -239 68 -69 94 -75 324 -75 190 0 192 0 216 -25 l25 -24 0 -951 c0
-522 -2 -950 -4 -950 -2 0 -57 73 -122 163 -145 199 -199 257 -290 316 l-71
46 161 415 160 415 1 90 c0 76 -4 98 -26 145 -37 80 -81 125 -157 162 -58 29
-76 33 -147 33 -71 0 -89 -4 -147 -33 -115 -56 -169 -142 -191 -303 -8 -52
-16 -87 -20 -79 -3 8 -22 117 -41 243 -40 257 -56 304 -133 382 -164 166 -439
146 -578 -43 -86 -116 -97 -279 -32 -467 l34 -100 -91 0 c-81 0 -98 -4 -158
-32 -85 -40 -151 -106 -191 -191 -30 -63 -32 -74 -32 -182 0 -109 2 -118 33
-185 30 -63 61 -98 322 -360 l289 -290 -227 -377 -227 -378 -97 0 -98 0 0 -80
0 -80 1083 0 1082 0 34 -73 c77 -165 272 -295 543 -361 538 -132 1147 37 1299
361 l34 73 443 0 442 0 0 80 0 79 -62 3 -62 3 -258 338 -258 339 0 274 0 275
25 24 c24 25 26 25 216 25 230 0 256 6 324 75 102 101 102 229 0 330 -68 69
-94 75 -324 75 -190 0 -192 0 -216 25 -33 32 -33 78 0 110 24 25 26 25 216 25
230 0 256 6 324 75 102 101 102 229 0 330 -68 69 -94 75 -323 75 -172 0 -192
2 -213 19 l-24 19 -5 304 -5 303 -34 63 c-38 70 -70 101 -145 140 -44 22 -63
26 -136 26 -69 0 -94 -4 -135 -24 -63 -31 -124 -91 -155 -155 -25 -50 -25 -53
-30 -393 l-5 -344 -24 -19 c-21 -17 -41 -19 -213 -19 -229 0 -255 -6 -323 -75
-71 -70 -91 -145 -63 -239 16 -55 99 -138 154 -154 26 -8 112 -12 233 -12 190
0 192 0 216 -25 24 -23 25 -29 25 -161 l0 -137 -32 27 c-99 79 -253 136 -367
136 -130 -1 -279 -56 -374 -140 -26 -23 -77 -80 -113 -126 -36 -46 -68 -84
-70 -84 -2 0 -4 266 -4 590 l0 591 25 24 c24 25 26 25 216 25 230 0 256 6 324
75 102 101 102 229 0 330 -68 69 -94 75 -324 75 -190 0 -192 0 -216 25 -16 15
-25 36 -25 55 0 19 9 40 25 55 24 25 26 25 216 25 230 0 256 6 324 75 102 101
102 229 0 330 -68 69 -94 75 -323 75 -255 0 -235 -18 -242 222 l-5 183 -34 63
c-38 70 -70 101 -143 138 -54 27 -159 40 -213 25z m163 -178 c63 -47 67 -59
72 -256 6 -208 13 -231 86 -296 62 -55 95 -61 313 -61 190 0 192 0 216 -25 33
-32 33 -78 0 -110 -24 -25 -26 -25 -216 -25 -121 0 -207 -4 -233 -12 -55 -16
-138 -99 -154 -154 -28 -94 -8 -169 63 -239 68 -69 94 -75 324 -75 190 0 192
0 216 -25 33 -32 33 -78 0 -110 -24 -25 -26 -25 -216 -25 -121 0 -207 -4 -233
-12 -55 -16 -138 -99 -154 -154 -9 -31 -12 -221 -12 -741 l0 -699 -157 -203
-158 -203 -5 919 c-6 1036 1 955 -86 1032 -62 55 -95 61 -313 61 -190 0 -192
0 -216 25 -33 32 -33 78 0 110 24 25 26 25 216 25 230 0 256 6 324 75 102 101
102 229 0 330 -68 69 -94 75 -324 75 -190 0 -192 0 -216 25 -33 32 -33 78 0
110 24 25 26 25 216 25 230 0 256 6 324 75 67 66 75 98 75 283 0 83 5 163 11
179 14 37 47 72 84 89 40 19 119 12 153 -13z m1600 -1040 c14 -10 35 -32 46
-47 20 -26 21 -44 26 -329 6 -342 7 -346 86 -416 62 -55 95 -61 313 -61 190 0
192 0 216 -25 16 -15 25 -36 25 -55 0 -19 -9 -40 -25 -55 -24 -25 -26 -25
-216 -25 -121 0 -207 -4 -233 -12 -55 -16 -138 -99 -154 -154 -28 -94 -8 -169
63 -239 68 -69 94 -75 324 -75 190 0 192 0 216 -25 33 -32 33 -78 0 -110 -24
-25 -26 -25 -216 -25 -218 0 -251 -6 -313 -61 -74 -65 -80 -88 -86 -298 l-5
-184 -157 208 -158 208 0 240 c0 159 -4 254 -12 281 -16 55 -99 138 -154 154
-26 8 -112 12 -233 12 -190 0 -192 0 -216 25 -16 15 -25 36 -25 55 0 19 9 40
25 55 24 25 26 25 216 25 121 0 207 4 233 12 55 16 138 99 154 154 8 29 12
137 12 352 0 196 4 321 11 339 14 37 47 72 84 89 40 19 119 12 153 -13z
m-3212 -557 c53 -25 97 -71 114 -122 8 -25 141 -842 140 -862 -1 -4 -57 152
-125 347 -69 195 -127 356 -130 359 -8 9 -145 -41 -145 -52 0 -9 309 -895 317
-908 2 -5 2 -8 -1 -8 -2 0 -69 105 -147 233 -78 127 -156 251 -172 275 -44 66
-167 442 -167 512 0 81 17 128 63 177 71 74 162 92 253 49z m811 -332 c55 -45
75 -89 70 -154 -3 -47 -144 -431 -304 -831 -14 -35 -15 -36 -54 -29 -22 4 -43
10 -46 14 -4 3 -12 41 -19 84 -11 72 -9 101 33 442 25 208 51 381 60 402 43
103 176 140 260 72z m-1179 -401 c43 -26 66 -59 250 -358 l204 -330 -29 -22
c-15 -13 -33 -22 -40 -21 -7 2 -104 129 -216 283 -118 162 -210 280 -219 279
-15 -1 -118 -74 -118 -84 0 -3 97 -138 215 -300 118 -162 215 -297 215 -300 0
-3 -8 -15 -18 -28 l-17 -22 -276 277 c-299 302 -299 302 -299 413 0 29 6 71
12 94 15 50 89 127 138 143 58 20 145 9 198 -24z m2946 -327 c39 -19 90 -54
112 -78 41 -43 1064 -1381 1064 -1392 0 -3 -126 -6 -279 -6 l-279 0 -12 34
c-35 108 -157 231 -299 304 -395 204 -1020 183 -1359 -45 -36 -24 -66 -42 -67
-41 -78 101 -115 161 -107 171 262 342 750 962 778 989 43 40 120 82 180 98
22 5 74 8 118 5 65 -3 91 -9 150 -39z m-2052 -447 c81 -17 188 -72 243 -126
28 -26 170 -211 316 -410 l265 -362 -30 -65 -31 -66 -892 0 -892 0 247 413
c198 331 259 424 307 473 122 123 300 178 467 143z m1830 -714 c3 -3 -4 -31
-15 -63 -27 -79 -19 -162 24 -243 36 -67 68 -98 143 -137 43 -22 64 -26 136
-26 73 -1 92 3 136 26 79 41 110 73 148 148 l35 70 29 -36 c113 -137 35 -304
-193 -415 -316 -154 -780 -158 -1095 -8 -108 51 -171 100 -218 168 -34 49 -37
59 -37 121 0 62 3 72 37 121 20 30 59 71 85 91 108 82 305 154 485 176 80 10
292 15 300 7z m268 -45 c97 -25 170 -61 176 -86 11 -44 -6 -96 -45 -135 -108
-108 -288 -19 -268 133 6 48 52 111 75 104 9 -3 37 -10 62 -16z"/>
<path d="M3288 2070 c-60 -18 -102 -57 -204 -186 -58 -75 -107 -141 -110 -147
-4 -12 96 -97 114 -97 5 0 55 59 112 131 159 203 161 203 347 -41 l136 -179
61 46 c33 26 62 47 64 48 8 6 -281 370 -309 389 -65 43 -143 57 -211 36z"/>
<path d="M3865 1440 c-27 -22 -49 -46 -49 -53 1 -8 25 -46 54 -85 l54 -71 36
27 c20 15 49 37 64 49 l27 22 -57 75 c-31 42 -62 76 -68 75 -6 0 -33 -18 -61
-39z"/>
<path d="M1285 1586 c-113 -36 -173 -91 -264 -241 -68 -114 -70 -102 28 -158
l50 -27 66 110 c78 129 111 156 201 168 l59 7 16 70 c11 50 13 72 5 77 -17 12
-117 8 -161 -6z"/>
<path d="M815 1000 c-26 -45 -46 -82 -44 -84 13 -9 128 -76 132 -76 4 0 66
101 93 152 2 3 -17 19 -43 34 -27 15 -58 33 -69 41 -21 13 -24 10 -69 -67z"/>
<path d="M2800 867 c-49 -16 -133 -102 -148 -153 -28 -94 -8 -169 63 -239 51
-52 102 -75 165 -75 63 0 114 23 165 75 98 97 101 222 8 325 -65 72 -158 97
-253 67z m135 -172 c50 -49 15 -135 -55 -135 -41 0 -80 39 -80 80 0 41 39 80
80 80 19 0 40 -9 55 -25z"/>
</g>
</svg>
