<?xml version="1.0" standalone="no"?>
<!DOCTYPE svg PUBLIC "-//W3C//DTD SVG 20010904//EN"
 "http://www.w3.org/TR/2001/REC-SVG-20010904/DTD/svg10.dtd">
<svg version="1.0" xmlns="http://www.w3.org/2000/svg"
 width="512.000000pt" height="512.000000pt" viewBox="0 0 512.000000 512.000000"
 preserveAspectRatio="xMidYMid meet">

<g transform="translate(0.000000,512.000000) scale(0.100000,-0.100000)"
fill="#000000" stroke="none">
<path d="M2256 3664 c-46 -34 -48 -38 -42 -72 3 -20 0 -51 -6 -68 -17 -48 4
-87 76 -142 77 -58 82 -66 101 -129 18 -58 83 -144 133 -175 26 -16 43 -19 77
-15 51 7 73 -9 56 -41 -12 -23 14 -51 69 -72 82 -31 203 -122 215 -161 7 -20
-9 -49 -26 -49 -5 0 -15 12 -21 26 -12 25 -92 74 -122 74 -19 0 -56 -70 -56
-102 1 -15 12 -30 33 -43 45 -29 49 -69 8 -93 -19 -10 -35 -31 -43 -52 -25
-76 -74 -116 -107 -86 -16 15 -19 12 -40 -30 -17 -36 -20 -56 -15 -90 10 -71
-35 -99 -88 -54 -21 18 -77 49 -185 104 -45 22 -56 37 -47 60 8 20 107 31 132
15 16 -10 32 -10 79 0 32 7 81 15 108 18 50 5 85 25 85 48 0 7 9 20 20 30 25
23 26 21 -10 114 -28 72 -34 79 -70 94 -30 12 -41 22 -48 48 -6 26 -15 36 -41
43 -17 5 -52 29 -76 53 -34 33 -52 43 -77 43 -41 1 -39 -1 -202 155 -88 83
-136 136 -139 154 -22 110 -28 121 -70 143 -23 11 -54 29 -69 39 -14 11 -40
19 -56 19 -25 0 -36 -8 -59 -42 -21 -32 -40 -46 -77 -60 -27 -9 -66 -34 -86
-53 -49 -48 -104 -61 -162 -39 -24 9 -63 20 -88 24 -25 4 -61 11 -80 15 -29 5
-42 1 -77 -25 -47 -35 -64 -83 -44 -126 6 -14 11 -43 11 -65 0 -34 -4 -42 -31
-57 -16 -9 -53 -34 -81 -54 -27 -21 -58 -38 -68 -38 -47 0 -81 -24 -126 -88
-25 -37 -61 -89 -80 -116 -41 -57 -42 -81 -9 -130 32 -47 31 -57 -8 -81 -30
-19 -41 -35 -69 -99 -9 -20 -23 -33 -45 -38 -17 -5 -42 -22 -55 -38 -70 -92
-52 -84 -185 -86 -127 -2 -133 -4 -275 -79 -23 -13 -23 -42 0 -50 11 -3 24
-17 30 -30 7 -14 26 -34 44 -45 28 -18 46 -20 123 -16 70 3 103 0 147 -15 69
-23 94 -16 153 41 29 28 56 43 100 54 32 8 66 24 75 35 26 34 98 63 178 73 42
5 91 14 107 20 37 13 112 27 186 34 44 5 64 2 95 -14 26 -13 45 -17 55 -12 69
39 163 49 312 34 52 -5 65 -3 121 26 74 38 107 36 131 -10 18 -34 26 -36 60
-14 53 35 61 -16 10 -69 -19 -20 -35 -45 -35 -56 0 -12 16 -39 36 -61 49 -54
43 -86 -31 -162 -30 -31 -55 -63 -55 -71 0 -8 9 -25 19 -38 20 -24 20 -24 52
-6 17 10 33 16 35 14 2 -1 9 -20 16 -42 12 -35 21 -43 93 -78 76 -37 82 -39
123 -28 47 12 92 4 168 -30 22 -11 49 -19 60 -19 29 0 60 -38 68 -83 10 -54
59 -84 168 -101 110 -18 175 -51 212 -108 15 -23 25 -28 60 -28 37 1 44 5 71
43 53 75 58 85 46 119 -36 104 26 178 176 209 55 11 66 11 105 -6 24 -10 55
-31 70 -48 31 -34 114 -66 175 -67 34 0 46 -6 67 -31 23 -27 30 -30 64 -24 40
6 135 -12 217 -44 28 -10 71 -22 97 -25 26 -4 50 -11 53 -17 13 -20 63 -7 159
43 97 50 101 51 143 40 24 -7 52 -12 62 -12 10 0 30 -9 43 -20 20 -15 41 -20
89 -20 35 0 77 0 92 -1 35 -2 88 46 110 99 36 91 57 148 57 160 0 7 14 42 30
77 17 35 30 68 30 73 0 5 12 26 26 47 21 32 24 42 15 64 -10 23 -15 97 -12
188 0 17 5 34 11 38 5 3 10 19 10 36 0 34 -24 40 -40 9 -13 -24 -62 -27 -80
-5 -21 25 -52 17 -97 -26 -30 -31 -54 -44 -85 -49 -24 -4 -58 -11 -76 -15 -29
-7 -36 -4 -70 32 -20 22 -63 52 -94 67 -66 32 -89 26 -112 -28 -9 -23 -24 -37
-46 -45 -55 -19 -80 -14 -114 23 -38 41 -66 56 -104 56 -17 0 -32 6 -35 14 -3
7 -19 16 -36 19 -17 4 -31 12 -31 20 0 7 -11 28 -25 47 -16 22 -23 41 -19 56
7 27 -13 40 -75 50 -78 12 -78 64 0 64 32 0 42 5 51 25 9 19 8 31 -1 49 -7 13
-10 33 -7 44 8 24 -10 33 -43 21 -23 -9 -23 -10 -6 -35 20 -31 8 -50 -24 -39
-22 7 -30 48 -11 60 6 3 10 27 10 53 0 27 8 64 19 84 19 39 18 48 -8 48 -8 0
-24 8 -35 18 -31 27 -97 43 -132 32 -16 -5 -48 -14 -71 -20 -25 -6 -43 -17
-43 -25 0 -8 -5 -26 -12 -40 -14 -31 -57 -34 -83 -5 -25 28 -53 26 -61 -5 -5
-19 3 -40 29 -82 31 -51 33 -59 21 -78 -13 -20 -10 -23 41 -58 31 -20 62 -37
71 -37 8 0 21 -15 29 -32 11 -28 11 -35 -1 -49 -8 -8 -14 -23 -14 -32 0 -26
-18 -29 -49 -8 -44 31 -86 4 -46 -29 8 -7 15 -19 15 -27 0 -15 -12 -15 -52 2
-14 6 -18 2 -18 -16 0 -13 7 -33 15 -43 28 -37 19 -56 -24 -56 -23 0 -44 6
-51 15 -9 11 -22 14 -41 10 -33 -8 -43 6 -41 55 2 28 -3 41 -23 58 -30 26 -32
43 -5 67 23 21 26 35 6 35 -7 0 -19 7 -26 15 -7 8 -23 15 -36 15 -24 0 -29 11
-24 54 1 10 -9 30 -22 45 -32 35 -78 104 -78 117 0 6 -13 23 -30 37 -34 31
-35 43 -19 166 l11 83 -33 35 c-40 41 -128 100 -164 109 -14 3 -34 19 -45 35
-15 20 -30 29 -58 31 -31 2 -39 8 -51 36 -11 24 -21 32 -41 32 -40 0 -106 79
-135 165 -14 39 -31 75 -38 80 -8 6 -19 20 -26 33 -14 27 -35 17 -45 -22 -9
-38 -34 -40 -57 -3 -19 31 -19 38 -2 105 9 37 -51 30 -111 -14z m-392 -539
c-1 -98 -9 -125 -38 -125 -24 0 -31 11 -57 95 -12 39 -12 39 27 72 57 50 69
42 68 -42z m-9 -181 c35 -14 46 -58 40 -161 -8 -133 -10 -140 -42 -148 -16 -3
-36 -14 -46 -22 -14 -13 -22 -14 -43 -5 -24 12 -25 14 -21 92 3 45 7 84 10 87
4 3 -3 23 -14 45 -22 44 -19 68 8 68 10 0 34 11 53 25 42 29 35 26 55 19z
m-607 -192 c2 -7 -3 -12 -12 -12 -9 0 -16 7 -16 16 0 17 22 14 28 -4z m-118
-20 c16 -13 21 -24 16 -39 -10 -30 -31 -35 -72 -16 -40 19 -41 41 -4 60 32 16
34 16 60 -5z m2068 -235 c2 -10 -3 -17 -12 -17 -10 0 -16 9 -16 21 0 24 23 21
28 -4z m887 -288 c7 -11 -22 -49 -37 -49 -19 0 -21 33 -3 46 23 17 32 17 40 3z
m-390 -132 c63 -7 131 -29 128 -42 -1 -6 -30 -14 -63 -19 -54 -8 -66 -6 -99
13 -22 11 -52 21 -69 21 -16 0 -36 7 -43 16 -11 14 -10 18 5 30 15 11 24 11
55 -1 20 -7 59 -16 86 -18z m1085 -11 c0 -32 -16 -49 -64 -72 -56 -26 -87 -30
-117 -14 -61 33 31 90 159 99 13 0 22 -5 22 -13z"/>
</g>
</svg>
