<?xml version="1.0" encoding="utf-8"?>
<!-- Generator: Adobe Illustrator 25.0.0, SVG Export Plug-In . SVG Version: 6.00 Build 0)  -->
<svg version="1.1" id="Calque_1" xmlns="http://www.w3.org/2000/svg" xmlns:xlink="http://www.w3.org/1999/xlink" x="0px" y="0px"
	 viewBox="0 0 841.9 381.9" style="enable-background:new 0 0 841.9 381.9;" xml:space="preserve">
<style type="text/css">
	.st0{fill:#FFFFFF;}
</style>
<g>
	<path class="st0" d="M107.9,161.6c2.8-2.8,6.8-3.4,10.2-1.2l29.6,17.3c4.3,2.8,5.2,8.6,2.2,12.3c-15.1,18.2-38.2,29.6-66,29.6
		C35.2,219.6,0,184.1,0,137.9c0-46.6,35.2-82,83.9-82c27.8,0,50.9,11.4,66,29.6c3.1,4,2.2,9.6-2.2,12.3l-29.6,17.6
		c-3.4,1.9-7.4,1.2-10.2-1.5c-5.9-5.9-14.2-9.6-24.1-9.6c-20,0-33.3,15.1-33.3,33.6c0,18.2,13.3,33.3,33.3,33.3
		C93.8,171.2,102.1,167.5,107.9,161.6z"/>
	<path class="st0" d="M361.1,137.9c0,46.3-34.8,82-83.9,82c-48.7,0-83.9-35.8-83.9-82c0-46.6,35.2-82,83.9-82
		C326.3,55.8,361.1,91.3,361.1,137.9z M310.9,137.9c0-18.2-13.3-33.6-33.6-33.6c-20,0-33.3,15.4-33.3,33.6s13.3,33.3,33.3,33.3
		C297.6,171.2,310.9,156.1,310.9,137.9z"/>
	<path class="st0" d="M505.8,56.7c4.9-0.9,9.9,2.8,9.9,8v35.5c0,4.9-4.3,8.6-8.9,8.3c-36.4-2.5-40.7,21-40.7,45.6v50.6
		c0,6.2-4.9,11.1-10.8,11.1h-28.4c-5.9,0-10.8-4.9-10.8-11.1V70.6c0-6.2,4.9-11.1,10.8-11.1h28.4c5.9,0,10.8,4.9,10.8,11.1v12.6
		C475.2,68.8,490.3,59.5,505.8,56.7z"/>
	<path class="st0" d="M685.5,59.5h30.8c6.2,0,11.1,4.9,11.1,11.1v134.2c0,6.2-4.9,11.1-11.1,11.1h-30.8c-4.6,0-8.3-3.7-8.3-8.3v-7.1
		c-9.2,11.4-23.1,19.1-44.1,19.1c-48.7,0-74.9-41-74.9-81.7c0-41,26.2-82,74.9-82c21,0,34.8,7.7,44.1,19.1v-7.1
		C677.2,63.2,680.9,59.5,685.5,59.5z M675.7,137.9c0-21-14.8-33.6-33.6-33.6c-20.7,0-33.3,14.2-33.3,33.6
		c0,19.1,12.6,33.3,33.3,33.3C660.9,171.2,675.7,158.5,675.7,137.9z"/>
	<path class="st0" d="M802.7,0h28.4c5.9,0,10.8,4.9,10.8,11.1v193.7c0,6.2-4.9,11.1-10.8,11.1h-28.4c-5.9,0-10.8-4.9-10.8-11.1V11.1
		C791.9,4.9,796.9,0,802.7,0z"/>
</g>
<g>
	<path class="st0" d="M57.3,334.8h32.2c1.9,0,3.4,1.5,3.4,3.2v41.1c0,1.5-1.2,2.7-2.9,2.7h-2.6c-1.5,0-2.6-1.1-2.7-2.6l-0.9-11.7
		c-6,9.8-16.2,15.8-31,15.8c-25.8,0-44.3-19.6-44.3-45.1s18.6-45.2,44.3-45.2c12.9,0,24.2,5,32,13.2c1.5,1.5,1.1,4-0.6,5.1l-4.7,3.1
		c-1.4,0.9-3.1,0.6-4.2-0.5c-5.4-5.6-12.9-9.2-22.4-9.2c-20.3,0-31.6,16.6-31.6,33.5s11.3,33.5,31.6,33.5
		c18.3,0,28.1-11.5,30.1-25.6H57.3c-1.9,0-3.4-1.5-3.4-3.4V338C54,336.3,55.5,334.8,57.3,334.8z"/>
	<path class="st0" d="M203.1,294.7c1.9,0,3.4,1.5,3.4,3.4v50.7c0,22.7-11.8,34.6-33.1,34.6c-21.2,0-33.1-12-33.1-34.6V298
		c0-1.9,1.5-3.4,3.4-3.4h5.8c1.9,0,3.4,1.5,3.4,3.4v48.4c0,18.6,8.1,25.2,20.5,25.2c12.6,0,20.7-6.6,20.7-25.2V298
		c0-1.9,1.5-3.4,3.4-3.4H203.1z"/>
	<path class="st0" d="M310.7,378.9l-6.3-18.1H267l-6.4,18.1c-0.6,1.7-2.2,3-4.1,3h-7.2c-1.5,0-2.6-1.5-2-3l30.3-81.3
		c0.6-1.7,2.2-2.9,4.1-2.9h8c1.9,0,3.5,1.1,4.1,2.9l30.4,81.3c0.5,1.5-0.6,3-2.1,3h-7.1C312.9,381.9,311.3,380.6,310.7,378.9z
		 M300.3,349.5L285.6,308l-14.6,41.5H300.3z"/>
	<path class="st0" d="M426.1,381.9h-6.8c-2.1,0-4-1.1-4.9-3l-16.6-30.8c-1.1,0.1-2.2,0.1-3.4,0.1H380v30.3c0,1.9-1.5,3.4-3.2,3.4
		h-5.8c-1.9,0-3.4-1.5-3.4-3.4V298c0-1.9,1.5-3.4,3.4-3.4h23.5c19.9,0,31.3,11.7,31.3,26.8c0,10.5-5.5,19.4-15.7,23.8l18.4,32.5
		C429.5,379.6,428.2,381.9,426.1,381.9z M394.5,336.9c12,0,18.6-6.1,18.6-15.4c0-9.3-6.6-15.4-18.6-15.4H380v30.9H394.5z"/>
	<path class="st0" d="M543.3,338.3c0,24.7-15.8,43.6-45.4,43.6h-21.3c-1.9,0-3.4-1.5-3.4-3.4V298c0-1.9,1.5-3.4,3.4-3.4h21.3
		C527.5,294.7,543.3,313.6,543.3,338.3z M530.7,338.3c0-19.5-12.2-32.3-32.9-32.3h-12.2v64.5h12.2
		C518.5,370.5,530.7,357.8,530.7,338.3z"/>
	<path class="st0" d="M592.1,294.7h5.8c1.9,0,3.4,1.5,3.4,3.4v80.4c0,1.9-1.5,3.4-3.4,3.4h-5.8c-1.9,0-3.4-1.5-3.4-3.4V298
		C588.8,296.2,590.3,294.7,592.1,294.7z"/>
	<path class="st0" d="M707.9,378.9l-6.4-18.1h-37.4l-6.3,18.1c-0.6,1.7-2.2,3-4.1,3h-7.2c-1.5,0-2.6-1.5-2-3l30.3-81.3
		c0.6-1.7,2.2-2.9,4.1-2.9h8c1.9,0,3.5,1.1,4.1,2.9l30.4,81.3c0.5,1.5-0.6,3-2.1,3h-7.1C710.2,381.9,708.6,380.6,707.9,378.9z
		 M697.6,349.5L682.9,308l-14.6,41.5H697.6z"/>
	<path class="st0" d="M824.3,294.7h5.9c1.7,0,3.2,1.5,3.2,3.4v80.4c0,1.9-1.5,3.4-3.2,3.4h-4.7c-1.7,0-3.5-0.9-4.5-2.4l-43.6-61.9
		v60.9c0,1.9-1.5,3.4-3.2,3.4h-5.9c-1.9,0-3.4-1.5-3.4-3.4V298c0-1.9,1.5-3.4,3.4-3.4h4.6c1.9,0,3.5,0.9,4.6,2.4l43.5,61.8V298
		C820.9,296.2,822.4,294.7,824.3,294.7z"/>
</g>
</svg>
