<?xml version="1.0" encoding="utf-8"?>
<!-- Generator: Adobe Illustrator 25.0.0, SVG Export Plug-In . SVG Version: 6.00 Build 0)  -->
<svg version="1.1" id="Calque_1" xmlns="http://www.w3.org/2000/svg" xmlns:xlink="http://www.w3.org/1999/xlink" x="0px" y="0px"
	 viewBox="0 0 841.9 841.9" style="enable-background:new 0 0 841.9 841.9;" xml:space="preserve">
<style type="text/css">
	.st0{fill:#FFFFFF;}
</style>
<g>
	<path class="st0" d="M70.2,356.8c3.4,0,6.2-2.8,6.2-6.2c0-3.4-2.8-6.2-6.2-6.2c-3.4,0-6.2,2.8-6.2,6.2
		C64.1,354,66.8,356.8,70.2,356.8z"/>
	<path class="st0" d="M765.3,350.6c0,3.4,2.8,6.2,6.2,6.2c3.4,0,6.2-2.8,6.2-6.2c0-3.4-2.8-6.2-6.2-6.2
		C768.1,344.4,765.3,347.2,765.3,350.6z"/>
	<path class="st0" d="M89.1,290.7c12.5,5.8,26.2,1.2,32.1-11.5c2.8-6.1,3.1-12.4,1.1-17.9c-0.5-1.4-2.2-2.1-3.5-1.2l-3.6,2.3
		c-0.9,0.6-1.4,1.7-1,2.8c1,3.1,0.9,6.7-0.8,10.4c-4.1,8.8-13.3,10.1-20.4,6.9c-7.1-3.3-12.1-11.1-8-20c1.7-3.7,4.4-6.1,7.4-7.4
		c1-0.4,1.6-1.5,1.5-2.6l-0.6-4.2c-0.2-1.5-1.8-2.4-3.2-1.9c-5.5,2.1-10.1,6.3-13,12.4C71.2,271.4,76.6,284.9,89.1,290.7z"/>
	<path class="st0" d="M118.1,232.7c11.2,8.1,25.6,6.1,33.8-5.2c8.1-11.3,5.4-25.6-5.8-33.6c-11.2-8-25.6-6.1-33.7,5.2
		C104.2,210.3,106.9,224.6,118.1,232.7z M119.3,204.1c5.7-7.9,15-7.4,21.3-2.9c6.4,4.6,9.8,13.3,4.1,21.2c-5.7,7.9-15,7.4-21.4,2.8
		C117.1,220.7,113.6,212,119.3,204.1z"/>
	<path class="st0" d="M178.6,189.5c0.9,1,2.4,1,3.4,0.1l3.1-3c1-0.9,1-2.5,0.1-3.4l-10-10.5l5.2-4.9c0.1-0.1,0.3-0.3,0.5-0.5
		l16.9,5.2c1,0.3,2.2,0.1,3-0.7l4.3-4.1c0.9-0.8,0.5-2.2-0.6-2.5l-18.7-5c2-5.3,1.2-10.7-2.9-15c-6.1-6.5-15.6-6.4-23.2,0.9
		l-10.1,9.6c-1,0.9-1,2.5-0.1,3.4L178.6,189.5z M165.5,152c3.7-3.5,7.7-3.7,10.7-0.7c3.3,3.5,2.2,7.5-1.2,10.7l-5.2,5l-9.5-10
		L165.5,152z"/>
	<path class="st0" d="M220,152.3c0.3,1.2,1.7,1.8,2.8,1.1l4.2-2.7c1.1-0.7,1.6-2,1.3-3.2l-1.9-7.5l16.2-10.6l6.1,4.8
		c1,0.8,2.4,0.8,3.5,0.1l4.2-2.7c1-0.7,1.1-2.1,0.1-2.9l-36.1-27.3c-1-0.7-2.4-0.8-3.4-0.1l-5.8,3.8c-1.1,0.7-1.6,2-1.3,3.2
		L220,152.3z M235.7,124.1l-11.6,7.6l-5.3-20.8L235.7,124.1z"/>
	<path class="st0" d="M276.1,118.8c0.5,1.2,1.9,1.8,3.1,1.3l20.6-9c1.2-0.5,1.7-1.9,1.2-3.2l-1.4-3.3c-0.5-1.2-1.9-1.8-3.1-1.3
		l-14.4,6.3l-14.4-33.1c-0.5-1.2-1.9-1.8-3.2-1.3l-4,1.7c-1.2,0.5-1.7,1.9-1.2,3.2L276.1,118.8z"/>
	<path class="st0" d="M392.2,90.6c7.3-0.6,12.1-4,14.8-8.8l1.4,5.1c0.2,0.9,1,1.4,1.9,1.3l1.6-0.1c1-0.1,1.7-1,1.6-2l-2-22.3
		c-0.1-1.3-1.3-2.2-2.6-2.1l-16.1,1.4c-1.3,0.1-2.3,1.3-2.2,2.6l0.3,3.1c0.1,1.3,1.3,2.3,2.6,2.2l11-1c-0.8,6.1-4.9,11.3-13,12
		c-9.6,0.8-15.4-6.5-16.1-14.3c-0.7-7.8,3.7-16,13.3-16.9c4.1-0.4,7.5,0.8,10.1,2.7c0.9,0.7,2.1,0.7,3,0l3.3-2.7
		c1.2-0.9,1.2-2.7,0-3.7c-4.6-3.7-10.5-5.7-17.2-5.1c-13.8,1.2-22.8,12.7-21.6,26.4C367.5,82.2,378.3,91.9,392.2,90.6z"/>
	<path class="st0" d="M455.7,91.3c12.2,1.3,19.6-5,20.8-16.1l2.8-27.1c0.1-1.3-0.8-2.5-2.1-2.7l-4.3-0.5c-1.3-0.1-2.5,0.8-2.6,2.2
		L467.6,73c-0.8,7.7-5.9,10.1-11,9.6c-5.2-0.5-9.6-3.9-8.8-11.7l2.7-25.9c0.1-1.3-0.8-2.5-2.2-2.7l-4.3-0.4
		c-1.3-0.1-2.5,0.8-2.7,2.2l-2.8,27.1C437.5,82.2,443.5,90,455.7,91.3z"/>
	<path class="st0" d="M496.2,96.6L501,98c1.2,0.4,2.5-0.1,3.3-1.1l4.5-6.3l18.5,5.5l0.3,7.7c0,1.3,0.9,2.4,2.1,2.7l4.8,1.4
		c1.2,0.4,2.3-0.6,2.3-1.8l-2.6-45.2c-0.1-1.2-0.9-2.3-2.2-2.7l-6.7-2c-1.2-0.4-2.5,0.1-3.3,1.1l-26.8,36.5
		C494.5,94.8,495,96.2,496.2,96.6z M526.1,66l0.9,21.5l-13.3-3.9L526.1,66z"/>
	<path class="st0" d="M558,117.8l3.8,1.9c1.2,0.6,2.6,0.1,3.2-1.1l6.6-12.9l6.4,3.3c0.2,0.1,0.4,0.2,0.7,0.3l0.8,17.7
		c0.1,1.1,0.7,2.1,1.6,2.6l5.3,2.7c1.1,0.5,2.3-0.3,2.2-1.5l-1.6-19.3c5.6,0.2,10.5-2.4,13.2-7.8c4-8,0.8-16.8-8.6-21.5l-12.4-6.3
		c-1.2-0.6-2.6-0.1-3.3,1.1l-19.1,37.6C556.3,115.8,556.8,117.2,558,117.8z M581.4,86.5l6.4,3.3c4.5,2.3,6.1,6,4.2,9.8
		c-2.2,4.3-6.3,4.6-10.4,2.5l-6.4-3.3L581.4,86.5z"/>
	<path class="st0" d="M618,153.4c12.5,9.5,25.8,7.4,34.2-3.6c8.4-11,6.8-24.4-5.7-33.9l-9.7-7.4c-1-0.8-2.5-0.6-3.3,0.5l-25.5,33.6
		c-0.8,1.1-0.6,2.6,0.4,3.3L618,153.4z M637,119.4l4.3,3.3c6.8,5.2,9.9,13.3,3.6,21.6c-6.3,8.3-14.9,7.6-21.8,2.4l-4.3-3.3
		L637,119.4z"/>
	<path class="st0" d="M656,186.1l3.1,3.1c0.9,1,2.5,1,3.4,0l30-29.6c1-0.9,1-2.5,0-3.4l-3.1-3.1c-0.9-0.9-2.4-0.9-3.4,0l-30.1,29.6
		C655.1,183.7,655.1,185.2,656,186.1z"/>
	<path class="st0" d="M677,208.3l2.9,4c0.8,1,2.1,1.5,3.3,1.1l7.4-2.3l11.4,15.6l-4.4,6.3c-0.7,1-0.7,2.4,0,3.5l2.9,4
		c0.7,1,2.2,1,2.9-0.1l25.3-37.6c0.6-1.1,0.7-2.4-0.1-3.4l-4.1-5.6c-0.8-1-2.1-1.5-3.2-1.1l-43.5,12.9
		C676.7,205.9,676.3,207.3,677,208.3z M719.3,202L707,219.7l-8.2-11.1L719.3,202z"/>
	<path class="st0" d="M713.5,262.5l1.9,3.9c0.6,1.2,2,1.7,3.2,1.1l25.9-12.4l-18.1,30.6c-0.6,1-0.7,2.3-0.1,3.4l1.7,3.5
		c0.6,1.2,2,1.7,3.2,1.1l38.1-18.2c1.2-0.6,1.7-2,1.1-3.2l-1.9-3.9c-0.6-1.2-2-1.7-3.2-1.1l-25.9,12.4l18.1-30.6
		c0.6-1,0.7-2.3,0.2-3.4l-1.7-3.6c-0.6-1.2-2-1.7-3.2-1.1l-38.1,18.2C713.4,259.9,712.9,261.3,713.5,262.5z"/>
	<path class="st0" d="M52.5,424.9c0.8,0,1.5-0.6,1.5-1.4l0.2-9.8l6.7,0.1l-0.1,8.5c0,0.8,0.6,1.4,1.4,1.4l2.2,0
		c0.8,0,1.5-0.6,1.5-1.4l0.1-8.5l6.4,0.1l-0.2,9.5c0,0.8,0.6,1.4,1.4,1.4l2.2,0c0.8,0,1.5-0.6,1.5-1.4l0.2-13.5
		c0-0.8-0.6-1.5-1.4-1.5L50.5,408c-0.8,0-1.5,0.6-1.5,1.4l-0.2,13.9c0,0.8,0.6,1.5,1.4,1.5L52.5,424.9z"/>
	<path class="st0" d="M80.5,469.7l-0.3-3.2c-0.1-0.7-0.5-1.4-1.2-1.7l-14.4-7l12.7-9.7c0.6-0.5,0.9-1.2,0.8-1.9l-0.3-3.2
		c-0.1-0.8-0.8-1.3-1.6-1.3l-25.4,2.6c-0.8,0.1-1.4,0.8-1.3,1.6l0.3,2.6c0.1,0.8,0.8,1.3,1.6,1.3l17.3-1.8l-12.4,9.5
		c-0.3,0.2-0.4,0.6-0.4,1l0.1,0.6c0,0.4,0.3,0.7,0.6,0.9l14.1,6.8l-17.3,1.8c-0.8,0.1-1.4,0.8-1.3,1.6l0.3,2.6
		c0.1,0.8,0.8,1.4,1.6,1.3l25.4-2.6C80,471.2,80.6,470.5,80.5,469.7z"/>
	<path class="st0" d="M78.7,510.1c5.8-1.3,8.7-6.2,7.2-12.8l-1.8-7.9c-0.2-0.8-1-1.3-1.8-1.1L57.5,494c-0.8,0.2-1.3,1-1.1,1.7
		l0.6,2.5c0.2,0.8,1,1.3,1.7,1.1l7.2-1.6l0.9,3.9C68.3,508.2,73,511.4,78.7,510.1z M80,494.5l0.9,3.9c0.8,3.3-0.5,5.5-3.4,6.2
		c-2.9,0.7-5-0.9-5.7-4.1l-0.9-3.9L80,494.5z"/>
	<path class="st0" d="M97.5,535.6c-2.8-7.9-10.8-11.5-18.7-8.7c-7.9,2.8-11.9,10.6-9.1,18.6c2.8,7.9,10.9,11.5,18.7,8.7
		C96.3,551.4,100.3,543.6,97.5,535.6z M74.7,543.7c-2-5.6,1.5-10,6-11.6c4.4-1.6,9.9-0.3,11.9,5.3c2,5.6-1.5,10-5.9,11.6
		C82.2,550.6,76.7,549.3,74.7,543.7z"/>
	<path class="st0" d="M124.3,595.2l-1.4-2.7c-0.4-0.7-1.2-1.1-1.9-1l-18.7,3.5l13.7-13.2c0.6-0.5,0.7-1.4,0.4-2.1l-0.7-1.4
		c-0.4-0.7-1.2-1.1-2-1L95,581.1l13.6-13.4c0.6-0.5,0.7-1.4,0.3-2.1l-1.4-2.7c-0.3-0.7-1.2-0.8-1.8-0.3l-19,19.2
		c-0.5,0.6-0.7,1.4-0.3,2.1l1,2c0.4,0.7,1.2,1.1,1.9,0.9l17.8-3.5l-13.1,12.6c-0.6,0.6-0.7,1.4-0.4,2.1l1.1,2
		c0.4,0.7,1.2,1.1,1.9,0.9l26.7-4.5C124.2,596.6,124.6,595.8,124.3,595.2z"/>
	<path class="st0" d="M131.9,627.2l-4.8-7l5.2-3.6l5.4,7.8c0.4,0.6,1.3,0.8,2,0.3l1.8-1.3c0.7-0.5,0.8-1.4,0.4-2l-7.7-11.1
		c-0.5-0.7-1.4-0.8-2-0.4l-21,14.5c-0.7,0.5-0.8,1.4-0.4,2l7.9,11.4c0.5,0.7,1.4,0.8,2,0.4l1.8-1.2c0.7-0.5,0.8-1.4,0.4-2l-5.6-8.1
		l5.5-3.8l4.8,7c0.4,0.6,1.3,0.8,2,0.4l1.8-1.3C132.2,628.7,132.4,627.8,131.9,627.2z"/>
	<path class="st0" d="M159.2,643.3l-5.5-6.4c-0.5-0.6-1.4-0.7-2.1-0.2l-19.4,16.6c-0.6,0.5-0.7,1.4-0.2,2.1l1.7,2
		c0.5,0.6,1.4,0.7,2.1,0.2l6.7-5.7l2.8,3.3c0.1,0.1,0.2,0.2,0.3,0.3l-3.6,10.1c-0.2,0.6-0.1,1.3,0.3,1.8l2.3,2.7
		c0.5,0.6,1.3,0.4,1.5-0.3l3.6-11.2c3.1,1.4,6.4,1.1,9.2-1.3C163.1,653.9,163.3,648.2,159.2,643.3z M155.4,653.1
		c-2.2,1.9-4.6,1.1-6.4-1l-2.8-3.3l6.3-5.4l2.8,3.3C157.3,649,157.3,651.4,155.4,653.1z"/>
	<path class="st0" d="M180.9,666.5l-1.9-1.8c-0.5-0.5-1.5-0.5-2,0l-17.9,18.2c-0.6,0.6-0.6,1.5,0,2l1.9,1.9c0.6,0.6,1.5,0.6,2.1,0
		l17.9-18.2C181.5,668,181.5,667.1,180.9,666.5z"/>
	<path class="st0" d="M209.1,691.4c-0.6-0.5-1.5-0.4-2.1,0.2l-11,13.4l2-21.4c0.1-0.7-0.2-1.5-0.8-1.9l-1.9-1.5
		c-0.6-0.5-1.5-0.4-2.1,0.2l-16.1,19.8c-0.5,0.6-0.4,1.5,0.2,2.1l2,1.6c0.6,0.5,1.5,0.4,2.1-0.2l11-13.4l-2,21.4
		c-0.1,0.7,0.2,1.5,0.8,1.9l1.8,1.5c0.6,0.5,1.5,0.4,2.1-0.2l16.1-19.8c0.5-0.6,0.4-1.5-0.2-2.1L209.1,691.4z"/>
	<path class="st0" d="M237.7,710.8c-7.1-4.5-15.6-2.3-20.1,4.7c-4.5,7-2.8,15.6,4.3,20.1c3.7,2.4,7.3,2.5,10.4,1.2l-1.2,3
		c-0.2,0.5,0,1,0.4,1.3l0.8,0.5c0.5,0.3,1.2,0.2,1.5-0.3l7.3-11.5c0.4-0.7,0.2-1.5-0.5-2l-8.3-5.2c-0.7-0.4-1.6-0.2-2,0.4l-1,1.6
		c-0.4,0.7-0.2,1.6,0.4,2l5.6,3.6c-2.6,2.7-6.5,3.6-10.7,1c-4.9-3.1-5-8.8-2.5-12.8c2.5-4,7.7-6.3,12.6-3.2c2.1,1.3,3.4,3.1,3.9,5
		c0.2,0.6,0.7,1.1,1.4,1.1l2.6,0c0.9,0,1.6-0.9,1.4-1.8C243.3,716.1,241.1,713,237.7,710.8z"/>
	<path class="st0" d="M305.1,743.7c-7.9-2.9-15.8,1.1-18.6,8.9c-2.9,7.8,0.6,15.9,8.5,18.8c3.8,1.4,7.6,1.2,10.8-0.2
		c0.8-0.4,1.1-1.4,0.6-2.2l-1.5-2.1c-0.4-0.5-1.1-0.8-1.7-0.5c-1.8,0.8-4,0.9-6.3,0c-5.5-2-6.8-7.5-5.2-12c1.6-4.4,6.1-7.9,11.6-5.8
		c2.3,0.8,3.9,2.3,4.8,4.1c0.3,0.6,1,0.9,1.6,0.8l2.5-0.6c0.9-0.2,1.3-1.2,1-2C311.7,747.7,309,745.1,305.1,743.7z"/>
	<path class="st0" d="M342.6,754.8c-8.2-1.9-15.5,2.9-17.4,11c-1.9,8.1,2.6,15.7,10.7,17.6c8.2,1.9,15.5-3,17.4-11.1
		C355.3,764.3,350.8,756.8,342.6,754.8z M348,771.2c-1.1,4.6-5.1,8.6-10.9,7.2c-5.7-1.3-7.6-6.7-6.5-11.3c1.1-4.6,5.1-8.5,10.8-7.2
		C347.2,761.3,349.1,766.6,348,771.2z"/>
	<path class="st0" d="M384.9,762.4l-4.2-0.5c-0.8-0.1-1.5,0.3-1.8,1l-12.1,24.6c-0.3,0.7,0.1,1.5,0.9,1.6l3,0.3
		c0.8,0.1,1.5-0.3,1.8-1l2-4.2l11.6,1.3l1,4.6c0.2,0.8,0.8,1.3,1.6,1.4l3,0.3c0.7,0.1,1.3-0.6,1.2-1.3l-6.4-26.7
		C386.3,763,385.7,762.5,384.9,762.4z M376.7,779.5l5.5-11.8l2.8,12.7L376.7,779.5z"/>
	<path class="st0" d="M422.2,776.3c-2.7-0.6-6.3-1-6.3-4.2c0-2.3,1.9-3.6,4.2-3.6c2.2,0,3.6,1,4.3,2.1c0.3,0.6,1,0.8,1.6,0.7
		l2.5-0.6c0.9-0.3,1.4-1.2,1-2.1c-1.7-3.3-5.1-5-9.2-4.9c-5.9,0.1-10,3.5-9.9,8.9c0.1,3.9,2,6.8,7.8,8.1c4.5,1.1,7.8,1.2,7.8,4
		c0,2.5-2.2,3.6-5.1,3.7c-3.2,0-4.9-1.3-5.7-2.6c-0.3-0.6-1-0.8-1.7-0.6L411,786c-0.9,0.3-1.2,1.2-0.8,2.1c1.9,3.6,6.2,5.2,10.9,5.1
		c7.5-0.1,10.5-4.5,10.5-8.9C431.5,779.7,429,777.8,422.2,776.3z"/>
	<path class="st0" d="M463.1,761.7l-16.2,1.6c-0.8,0.1-1.3,0.8-1.3,1.6l0.2,2.2c0.1,0.8,0.8,1.4,1.6,1.3l5.4-0.5l2.2,21.8
		c0.1,0.8,0.8,1.4,1.6,1.3l2.6-0.3c0.8-0.1,1.3-0.8,1.3-1.6l-2.1-21.8l5.4-0.5c0.8-0.1,1.4-0.8,1.3-1.6l-0.2-2.2
		C464.6,762.3,463.9,761.7,463.1,761.7z"/>
	<path class="st0" d="M492.9,757.9c-0.4-0.6-1.2-1-1.9-0.8l-4.1,0.8c-0.8,0.2-1.3,0.8-1.4,1.5l-4,27.1c-0.1,0.8,0.6,1.4,1.3,1.2
		l2.9-0.6c0.8-0.2,1.3-0.8,1.4-1.5l0.6-4.6l11.5-2.3l2.3,4c0.4,0.7,1.2,1,1.9,0.9l2.9-0.6c0.7-0.1,1.1-1,0.7-1.6L492.9,757.9z
		 M488.3,775.9L490,763l6.5,11.2L488.3,775.9z"/>
	<path class="st0" d="M539.9,769.4c-0.2-0.8-1-1.2-1.8-1l-9.1,2.9l-6.6-20.9c-0.2-0.8-1.1-1.2-1.8-1l-2.5,0.8
		c-0.7,0.2-1.2,1-0.9,1.8l7.7,24.4c0.2,0.8,1.1,1.2,1.8,1l13-4.1c0.8-0.2,1.2-1,0.9-1.8L539.9,769.4z"/>
	<path class="st0" d="M608.1,735.7l-2.6-0.2c-0.7,0-1.3,0.3-1.5,1c-0.6,1.9-2,3.6-4.1,4.8c-5.2,2.9-10.1,0.2-12.4-4
		c-2.3-4.1-1.9-9.8,3.2-12.6c2.2-1.2,4.3-1.4,6.3-1c0.6,0.2,1.3-0.1,1.6-0.7l1.2-2.3c0.4-0.8,0-1.8-0.9-2.1c-3.4-1-7.2-0.6-10.7,1.4
		c-7.4,4.1-9.6,12.6-5.5,19.9c4,7.3,12.4,10,19.8,5.9c3.6-2,5.9-4.9,6.9-8.3C609.6,736.7,609,735.8,608.1,735.7z"/>
	<path class="st0" d="M621.2,699.2c-6.8,4.9-8,13.6-3.1,20.4c4.9,6.8,13.5,8.4,20.4,3.5c6.8-4.9,8-13.7,3.1-20.4
		C636.7,695.9,628,694.2,621.2,699.2z M635.4,718.8c-4.8,3.4-10,1.4-12.8-2.5c-2.7-3.8-3.1-9.5,1.7-12.9c4.8-3.5,10-1.4,12.8,2.5
		C639.8,709.7,640.1,715.4,635.4,718.8z"/>
	<path class="st0" d="M668.3,661.5c-0.6-0.6-1.5-0.6-2.1-0.1l-2.3,2.2c-0.5,0.5-0.8,1.3-0.6,2l3.2,15.7l-15.5-4.1
		c-0.7-0.2-1.5,0-2,0.5l-2.4,2.2c-0.6,0.5-0.6,1.5,0,2l17.5,18.5c0.6,0.6,1.5,0.6,2,0.1l1.9-1.8c0.6-0.6,0.6-1.4,0-2l-11.9-12.6
		l15.1,4c0.3,0.1,0.7,0,1-0.3l0.4-0.4c0.3-0.2,0.4-0.7,0.4-1l-3.2-15.3l12,12.7c0.6,0.6,1.5,0.6,2.1,0.1l1.9-1.8
		c0.6-0.6,0.6-1.5,0.1-2.1L668.3,661.5z"/>
	<path class="st0" d="M698.8,625.5c-0.6-0.5-1.5-0.4-2.1,0.2l-2,2.5c-0.5,0.6-0.6,1.4-0.4,2.1l5.3,15.1l-15.9-2
		c-0.7-0.1-1.5,0.2-1.9,0.8l-2,2.5c-0.5,0.6-0.4,1.5,0.2,2l19.9,16c0.6,0.5,1.5,0.4,2-0.2l1.7-2.1c0.5-0.6,0.4-1.5-0.3-2l-13.5-10.9
		l15.5,1.9c0.3,0,0.7-0.1,1-0.4l0.4-0.5c0.2-0.3,0.3-0.7,0.2-1l-5.3-14.7l13.6,11c0.6,0.5,1.5,0.4,2.1-0.2l1.6-2
		c0.5-0.6,0.4-1.5-0.2-2.1L698.8,625.5z"/>
	<path class="st0" d="M734.7,600.4l-14-8.7c-0.7-0.4-1.6-0.2-2,0.4l-1.4,2.3c-0.4,0.7-0.2,1.5,0.5,2l13.4,8.3c4,2.5,4,5.9,2.3,8.5
		c-1.6,2.7-4.6,4.2-8.6,1.7l-13.4-8.3c-0.7-0.4-1.6-0.2-2,0.5l-1.4,2.2c-0.4,0.7-0.2,1.6,0.5,2l14,8.7c5.7,3.5,11.5,2.3,15.4-4.1
		C741.9,609.6,740.4,603.9,734.7,600.4z"/>
	<path class="st0" d="M761.7,566.4l-23.1-10.7c-0.7-0.3-1.6,0-1.9,0.7l-1.1,2.4c-0.3,0.7,0,1.6,0.7,1.9l15.7,7.3l-21.2,3.3
		c-0.7,0.1-1.3,0.6-1.6,1.2l-1,2.2c-0.3,0.7,0,1.6,0.7,1.9l23.1,10.7c0.7,0.3,1.6,0,1.9-0.7l1.1-2.3c0.3-0.7,0-1.6-0.7-1.9
		l-15.7-7.3l21.2-3.3c0.7-0.1,1.3-0.6,1.7-1.3l1-2.1C762.8,567.6,762.5,566.7,761.7,566.4z"/>
	<path class="st0" d="M770.7,542.8l-24-8.6c-0.8-0.3-1.6,0.1-1.9,0.9l-0.9,2.5c-0.3,0.7,0.1,1.6,0.9,1.8l24,8.6
		c0.8,0.3,1.6-0.1,1.9-0.8l0.9-2.5C771.9,543.9,771.5,543,770.7,542.8z"/>
	<path class="st0" d="M779.5,513.7l-21.1-5.6l1.4-5.2c0.2-0.8-0.3-1.6-1-1.8l-2.1-0.6c-0.8-0.2-1.6,0.3-1.8,1l-4.2,15.8
		c-0.2,0.7,0.3,1.5,1,1.7l2.1,0.6c0.8,0.2,1.6-0.2,1.8-1l1.4-5.2l21.1,5.6c0.8,0.2,1.6-0.2,1.8-1l0.7-2.6
		C780.7,514.6,780.3,513.9,779.5,513.7z"/>
	<path class="st0" d="M785.9,483.8l-25.1-4.5c-0.8-0.1-1.5,0.4-1.7,1.2l-0.5,2.6c-0.1,0.8,0.4,1.5,1.2,1.7l25.1,4.5
		c0.8,0.1,1.6-0.4,1.7-1.1l0.5-2.6C787.2,484.7,786.7,483.9,785.9,483.8z"/>
	<path class="st0" d="M790.4,447.8l-2.2-0.2c-0.8-0.1-1.5,0.5-1.6,1.3l-0.9,9.8l-6.7-0.6l0.8-8.5c0.1-0.8-0.5-1.5-1.3-1.6l-2.2-0.2
		c-0.8-0.1-1.5,0.5-1.6,1.3l-0.8,8.5l-6.3-0.6l0.9-9.4c0.1-0.8-0.5-1.5-1.3-1.5l-2.2-0.2c-0.8-0.1-1.5,0.5-1.6,1.3l-1.3,13.5
		c-0.1,0.8,0.5,1.5,1.3,1.6l25.4,2.5c0.8,0.1,1.5-0.5,1.6-1.3l1.3-13.8C791.7,448.6,791.2,447.9,790.4,447.8z"/>
	<path class="st0" d="M772.1,423.9c-2.3,0-3.6-1.9-3.6-4.3c0-2.2,1-3.6,2.1-4.3c0.6-0.3,0.8-1,0.7-1.6l-0.7-2.5
		c-0.3-0.9-1.2-1.4-2-0.9c-3.3,1.7-5,5.1-4.9,9.2c0.1,5.9,3.5,10,8.9,9.9c3.9-0.1,6.8-2,8.1-7.8c1.1-4.5,1.2-7.7,4-7.8
		c2.5,0,3.6,2.2,3.7,5.1c0,3.2-1.3,4.9-2.6,5.7c-0.6,0.3-0.8,1-0.6,1.7l0.8,2.5c0.3,0.9,1.2,1.2,2,0.8c3.6-1.9,5.2-6.2,5.1-10.9
		c-0.1-7.5-4.5-10.5-8.9-10.5c-4.6,0.1-6.5,2.5-7.9,9.3C775.7,420.2,775.3,423.8,772.1,423.9z"/>
	<path class="st0" d="M420.9,0C188.8,0,0,188.8,0,420.9s188.8,420.9,421,420.9c232.1,0,420.9-188.8,420.9-420.9S653.1,0,420.9,0z
		 M420.9,829.5c-225.3,0-408.6-183.3-408.6-408.6S195.7,12.4,420.9,12.4s408.6,183.3,408.6,408.6S646.2,829.5,420.9,829.5z"/>
	<path class="st0" d="M722.1,362.4C689.9,196.3,528.5,87.5,362.4,119.8C196.3,152,87.5,313.4,119.8,479.5
		C152,645.6,313.4,754.4,479.5,722.1C645.6,689.9,754.4,528.5,722.1,362.4z M591.6,660.5c-4.8-6.1-16.3-16-23.3-22.5
		c-5.5-5.1-25.3-19.2-11.3-40.2c14.9-22.5,23.3-32.8,30.1-41.1c10.7-13.2,16.6-20.4,35.2-60.7c26.4-57.3,41-91.8,34.8-133.3
		c-2.1-14.2-12.7-19.8-21.1-20.3c-8.1-0.5-14.6,3.3-16.3,9.4l-0.6,2c-4.6,16.7-4.7,17.3-5,29.8l-0.1,4.9c-0.2,7.2-0.5,18.1-3.8,20.8
		c-0.3,0.2-1.2,1-4,0.6c-3.8-0.6-7.5-3.1-10.1-6.9c-20.2-29.3-26.7-32.1-41.6-27.3l-1.6,0.5c-3.7,1.1-6.3,3.7-7.5,7.2
		c-2.8,8.3,2.7,21.1,19.1,44.3c4.7,6.7,7.6,9.7,9.8,12.1c3,3.2,5.1,5.5,11,15.9c2.8,5-0.7,12.4-4.1,19.6c-1.3,2.7-2.5,5.3-3.4,7.7
		c-1.1,2.9-7.6,13.1-11.7,19.1c-10.5,15.4-25.2,29.7-33.1,36.8c-0.6,0.6-0.9,0.9-1,1c-4.8,5.2-6.8,5.1-6.8,5.1
		c-0.3,0-2.5-0.4-3.3-3.6c-10.5-45.8-7.5-36.8-19.3-67.6c-3-7.8-21.8-40.3-23.2-42.4c-2.1-9.7,1.1-20.8,4.9-33.7
		c4.5-15.6,9.7-33.2,8.1-55.2c-0.8-11.6-7.1-17.1-10.8-19.4c-4.9-3-10.9-3.7-15.4-1.8c-8.8,3.7-15.4,14.4-17.5,28.5
		c-1.9,12.9-2.3,18.1-2.7,23.5c-0.1,1.8-0.2,3.6-0.4,5.8c-0.5,5.6-2.8,12.7-6.3,20.1c-15.6-11.8-58.2-48.4-61.6-55.9
		c-2.8-12-1.9-21.3-0.9-32.1c0.7-6.9,1.4-14.1,1.2-22.7c-0.5-25-6.7-47.7-18.8-51.7c-6.9-2.3-16.8-4.7-23.8,0.5
		c-8,6-7.1,13.4-6.5,28.2c0.2,5.6,0.5,11.9,0.3,18.5c-0.1,5-0.2,8.6,0,11.1h0c0,0.7,0,2.6-0.1,7.7c0,2.5-1.8,3.4-2.6,3.7
		c-0.8,0.3-2.7,0.9-4.5-0.9c-12.7-12.5-19.3-20.4-23.3-25.2c-7-8.4-9.5-10.7-19.7-9.2c-9.9,1.5-17.9,7.1-21.1,14.9
		c-2.7,6.6-3.4,17.7,8.3,33.2c17.3,22.8,28,30.4,44.2,41.9c6.5,4.6,13.8,9.8,23,17l3.8,3c13.8,10.7,42.6,33.1,78.9,69.3
		c12,12,27,36.8,32.5,48.2c12.7,26.3,21.5,62.2,17.2,72.1c-1.2,2.7-3,4.4-5.3,5c-2.4,0.6-4.8-0.4-7.4-2.1
		c-40.9-28.5-46-31.4-84.2-47.5c-8.1-3.4-13.5-13.3-22.3-29.5c-5.6-10.4-12.6-23.3-22.6-38.5c-6.2-9.5-12.1-17.3-20.4-17.6
		c-5-0.2-9.7,2.6-13.9,8.2c-3.5,4.6-5.9,6.8-7.6,8.4c-6.9,6.3-5.3,10.4-2.2,18.6c0.6,1.7,1.4,3.7,2.3,6.2c4.1,11.3,8.6,18.4,12.3,24
		c4.7,7.3,7.8,12.2,8,23c0.1,4-4.7,9.7-8.8,10.6c-4.5,1-16.7,3.2-18,3.4c-0.6,0.2-0.8,0.1-1.2,0.2c-18.8,3-28.2,6.6-32.4,12.5
		c-3.4,4.7-2.6,9.6-2.1,12.6l0.2,1c3.5,23.2,18.9,21.7,42.4,19.4c3-0.3,6.2-0.6,9.6-0.9c9.7-0.8,18.7-3,27.4-5.1
		c16.4-4,31-11.8,44.9-5c30.9,15.1,52.4,30.1,54,31.1c9.1,5.6,29.5,25.8,32,53.8c1.3,14.5-11,41.8-11.5,51.4
		c-124.9,5.1-275.2-75-306.7-237c-30.9-159.2,73.4-313.9,232.6-344.9c159.2-30.9,313.9,73.4,344.9,232.6
		C732.4,481.4,682.5,595.6,591.6,660.5z"/>
</g>
</svg>
