<svg width="19" height="18" viewBox="0 0 19 18" fill="none" xmlns="http://www.w3.org/2000/svg">
<path d="M18.5 2V16C18.5 17.1046 17.6046 18 16.5 18H12.75C12.4739 18 12.25 17.7761 12.25 17.5V11.5H14.59C14.8276 11.5 15.0325 11.3328 15.08 11.1L15.44 9.3C15.4549 9.22729 15.4366 9.15173 15.3903 9.09378C15.3439 9.03582 15.2742 9.00147 15.2 9H12.25V5.75C12.25 5.61193 12.3619 5.5 12.5 5.5H15C15.2761 5.5 15.5 5.27614 15.5 5V3.5C15.5 3.22386 15.2761 3 15 3H12.5C10.8431 3 9.5 4.34315 9.5 6V9H8.27C7.99386 9 7.77 9.22386 7.77 9.5V11C7.77 11.2761 7.99386 11.5 8.27 11.5H9.5V17.5C9.5 17.7761 9.27614 18 9 18H2.5C1.39543 18 0.5 17.1046 0.5 16V2C0.5 0.89543 1.39543 0 2.5 0H16.5C17.6046 0 18.5 0.89543 18.5 2Z" fill="#333333"/>
</svg>
