<svg width="19" height="18" viewBox="0 0 19 18" fill="none" xmlns="http://www.w3.org/2000/svg">
<path d="M16.5 0H2.5C1.39543 0 0.5 0.89543 0.5 2V16C0.5 17.1046 1.39543 18 2.5 18H16.5C17.6046 18 18.5 17.1046 18.5 16V2C18.5 0.89543 17.6046 0 16.5 0ZM6 14.5C6 14.7761 5.77614 15 5.5 15H4C3.72386 15 3.5 14.7761 3.5 14.5V7.5C3.5 7.22386 3.72386 7 4 7H5.5C5.77614 7 6 7.22386 6 7.5V14.5ZM4.75 6C3.92157 6 3.25 5.32843 3.25 4.5C3.25 3.67157 3.92157 3 4.75 3C5.57843 3 6.25 3.67157 6.25 4.5C6.25 5.32843 5.57843 6 4.75 6ZM15.5 14.5C15.5 14.7761 15.2761 15 15 15H13.5C13.2239 15 13 14.7761 13 14.5V10.75C13 9.92157 12.3284 9.25 11.5 9.25C10.6716 9.25 10 9.92157 10 10.75V14.5C10 14.7761 9.77614 15 9.5 15H8C7.72386 15 7.5 14.7761 7.5 14.5V7.5C7.5 7.22386 7.72386 7 8 7H9.5C9.77614 7 10 7.22386 10 7.5V8.1C10.6083 7.17441 11.677 6.65925 12.78 6.76C14.3576 6.95452 15.5325 8.31077 15.5 9.9V14.5Z" fill="#333333"/>
</svg>
